<?xml version="1.0" encoding="UTF-8"?>
<!DOCTYPE svg PUBLIC "-//W3C//DTD SVG 1.1//EN" "http://www.w3.org/Graphics/SVG/1.1/DTD/svg11.dtd">
<!-- Creator: CorelDRAW 2020 (64 Bit) -->
<svg xmlns="http://www.w3.org/2000/svg" xml:space="preserve" width="100px" height="68px" version="1.1" style="shape-rendering:geometricPrecision; text-rendering:geometricPrecision; image-rendering:optimizeQuality; fill-rule:evenodd; clip-rule:evenodd"
viewBox="0 0 41.34 28.05"
 xmlns:xlink="http://www.w3.org/1999/xlink"
 xmlns:xodm="http://www.corel.com/coreldraw/odm/2003">
 <defs>
  <style type="text/css">
   <![CDATA[
    .str1 {stroke:#191919;stroke-width:0.2;stroke-miterlimit:22.9256}
    .str2 {stroke:#191919;stroke-width:0.15;stroke-miterlimit:22.9256}
    .str0 {stroke:#191919;stroke-width:0.06;stroke-miterlimit:22.9256}
    .fil29 {fill:none}
    .fil26 {fill:#191919}
    .fil27 {fill:#191919}
    .fil21 {fill:#221814}
    .fil24 {fill:#38A369}
    .fil23 {fill:#3B9B5C}
    .fil16 {fill:#3D3D3D}
    .fil2 {fill:#51B224}
    .fil13 {fill:#585858}
    .fil11 {fill:#787878}
    .fil17 {fill:#AE3821}
    .fil7 {fill:#B8A35A}
    .fil5 {fill:#C52525}
    .fil8 {fill:#C81E0F}
    .fil6 {fill:#D34949}
    .fil15 {fill:#D55D32}
    .fil3 {fill:#E03F00}
    .fil18 {fill:#E68443}
    .fil0 {fill:#E8A64D}
    .fil10 {fill:#E98241}
    .fil20 {fill:#F15D72}
    .fil22 {fill:#F76946}
    .fil1 {fill:#FDE17B}
    .fil25 {fill:#FDFDFD}
    .fil19 {fill:#FE694C}
    .fil14 {fill:#FEA933}
    .fil9 {fill:#FECE52}
    .fil12 {fill:#FEEA93}
    .fil4 {fill:#FF7849}
    .fil28 {fill:white}
   ]]>
  </style>
 </defs>
 <g id="Camada_x0020_1">
  <metadata id="CorelCorpID_0Corel-Layer"/>
  <g id="_2588078244608">
   <g>
    <path class="fil0" d="M33.63 5.83c-2.98,0.17 -5.44,2.69 -5.27,5.88 0.06,1.1 0.45,2.14 1.08,2.99 0.13,-0.7 0.39,-1.36 0.75,-1.94 0.05,-2.99 2.43,-5.3 5.28,-5.47 1,-0.05 1.93,0.16 2.75,0.56 -1.07,-1.3 -2.72,-2.12 -4.59,-2.02zm-0.39 4.58l0 0c-0.02,0 -0.04,0.01 -0.06,0.01 0.34,-0.11 0.7,-0.19 1.06,-0.24 -0.01,0.01 -0.03,0.01 -0.05,0.01l0 0 -0.01 0c-0.01,0 -0.03,0.01 -0.05,0.01l-0.03 0 -0.05 0.01 -0.04 0.01 -0.05 0.01 -0.03 0c-0.02,0.01 -0.04,0.01 -0.05,0.01l-0.03 0.01 -0.05 0.01 -0.04 0.01 -0.05 0.01 -0.03 0 -0.05 0.02 -0.03 0c-0.02,0.01 -0.03,0.01 -0.05,0.02l-0.03 0c-0.02,0.01 -0.04,0.01 -0.05,0.02l-0.03 0.01c-0.02,0 -0.04,0 -0.05,0.01l-0.03 0.01 -0.05 0.01 -0.01 0.01 -0.03 0 -0.03 0.02zm1.09 -0.24l0 0 -0.04 0.01 0.03 -0.01 0 0 0.01 0 0 0 0 0 0 0zm0.01 0c0.01,0 0.03,0 0.05,0l0 0 0 0 0 0 0 0 0.01 0 0 0 0 0 0 0 0 0 0 0 0 0 -0.01 0 0 0 0 0 0 0 0 0 0 0 -0.01 0 0 0 -0.03 0 0 0 0 0 0 0 0 0 0 0 -0.01 0 0 0zm0.07 -0.01l0.02 0 0 0 -0.02 0zm0.02 0l0 0 0.01 0 0 0 0 0 0 0 0 0 0.01 0 -0.01 0 0 0 0 0 0 0 0 0 -0.01 0zm0 0l0 0 0 0 0 0zm0 0l0 0 0 0 0 0zm-2.42 0.81l-0.01 0 0.01 0 -0.01 0zm0.13 -0.08l0 0 0 0 0 0zm0 0l0 0 0.01 0 -0.01 0zm0.01 0l0 0 0 0 0 0zm0 0l0 0 0 0 0 0zm0.07 -0.04l0 0 0 0zm0 0l0.01 0 -0.01 0zm0.07 -0.04l0.03 -0.01 -0.03 0.01zm0.04 -0.02l0 0 0 0zm0.16 -0.08c0.02,-0.01 0.04,-0.02 0.06,-0.03 -0.02,0.01 -0.04,0.02 -0.06,0.03zm0.08 -0.04c0.03,-0.01 0.05,-0.02 0.08,-0.03 -0.03,0.01 -0.05,0.02 -0.08,0.03zm0.1 -0.04c0.02,-0.02 0.05,-0.03 0.07,-0.04 -0.02,0.01 -0.05,0.02 -0.07,0.04zm0.1 -0.05c0.03,-0.01 0.05,-0.02 0.07,-0.03 -0.02,0.01 -0.04,0.02 -0.07,0.03zm0.11 -0.04c0.02,-0.01 0.04,-0.02 0.07,-0.03 -0.03,0.01 -0.05,0.02 -0.07,0.03zm0.1 -0.04c0.02,-0.01 0.05,-0.02 0.07,-0.03 -0.02,0.01 -0.05,0.02 -0.07,0.03zm0.1 -0.04c0.03,-0.01 0.05,-0.02 0.07,-0.02 -0.02,0 -0.04,0.01 -0.07,0.02z"/>
    <path class="fil1" d="M33.38 6.52c-1.15,0.13 -2.12,0.63 -2.91,1.38 -0.11,0.11 -0.18,0.2 -0.3,0.33 -0.35,0.38 -0.71,1.04 -0.88,1.55 -0.23,0.69 -0.33,1.41 -0.24,2.18 0.07,0.66 0.29,1.3 0.62,1.88 0.14,-0.38 0.31,-0.75 0.52,-1.08l0 0c0.05,-2.99 2.43,-5.3 5.28,-5.47 0.44,-0.02 0.87,0.01 1.28,0.08 -0.96,-0.66 -2.2,-0.98 -3.37,-0.85zm-1.8 4.74l0.02 -0.01 0 0 0 0 -0.01 0 0 0 0 0 0 0 0 0 0 0 0 0 0 0 0 0 0 0.01 -0.01 0 0 0 0 0 0 0 0 0 0 0 0 0zm0.06 -0.05l0.01 0 0.01 -0.01 0.01 -0.01 0.04 -0.03 0.01 0 0.02 -0.01 0.04 -0.03 0 -0.01 0.03 -0.01 0.04 -0.03 0 0 0.02 -0.02 0.04 -0.02 -0.29 0.2 0.02 -0.02zm0.28 -0.19l0.02 -0.01 -0.01 0.01 0 0 0 0 0 0 0 0 0 0 0 0 0 0 -0.01 0zm0.07 -0.04l0.02 -0.01 0 0 0 0 -0.02 0.01 0 0zm0.07 -0.05l0.02 0 0 -0.01 0 0.01 0 0zm1.18 -0.53c0.02,-0.01 0.04,-0.01 0.06,-0.02l-0.01 0 0 0 -0.01 0 0 0.01 -0.03 0 0 0 0 0.01 -0.01 0zm0.08 -0.03c0.02,0 0.04,-0.01 0.06,-0.01l0 0 -0.01 0 0 0 -0.04 0.01 0 0 -0.01 0zm0.07 -0.02l0 0 0.01 0 0 0 -0.01 0 0 0 0 0zm0.06 -0.01l0.01 -0.01 0 0 0 0 0 0 0 0 -0.01 0.01zm0.03 -0.01l0 0 0.01 0 0 0 0 0 0 0 0 0 -0.01 0zm-0.03 0.01l0 0 -0.04 0.01 0 0 -0.01 0zm0.42 -0.1l0.04 -0.01 0 0 0 0 0.01 0 0 0 0 0 0.03 -0.01 0 0 0.01 0 0 0 0.03 0 0.01 0 0 -0.01 0 0 0.02 0zm0.16 -0.02l0.04 -0.01 0 0 -0.04 0.01zm0.19 -0.03l0 0 0 0 0 0 0 0 0 0 0 0zm0.01 0l0 0 0 0 0 0 0.04 0 -0.04 0 0 0 0 0zm0.04 0l0 0 0 0 0 0 0 0zm0 0l0 0zm0 0l0 0 0 0 0 0 0 0zm0 0l0 0 0 0 0 0zm-0.04 0l0 0 0 0 0 0zm2.63 0.35l0.03 0.02 0 0 -0.03 -0.02zm0.03 0.02l0 0 0 0zm0 0l0 0 0 0 0 0zm0 0l0 0 0 0zm0 0l0 0 0 0 0 0zm0.43 0.2l0.04 0.01 -0.03 -0.01 0 0 0 0 0 0 0 0 0 0 0 0 -0.01 0zm0.12 0.05l0 0.01 0 0 0 0 0 0 0 0 0 0 0 0 0 -0.01 0 0zm0 0.01l0 0 0 0zm0 0c0.01,0 0.02,0.01 0.03,0.01l-0.03 -0.01zm-0.01 -0.01l-0.03 -0.01zm0.1 0.05l0.02 0.01 -0.02 -0.01zm0.02 0.01l0 0 0 0 0 0 0 0zm0.01 0l0 0.01 0 0zm0 0l0 0zm0 0l0 0 0 0zm0 0l0 0zm0.01 0l0 0 0 0 0 0 0 0zm0 0l0 0 0 0zm0 0l0 0.01 0 0 0.01 0 -0.01 0 0 -0.01 0 0zm0.01 0.01l0 0 0 0zm0 0l0 0 0 0zm0 0l0 0 0 0zm0 0l0 0 0 0zm0 0c0.01,0 0.02,0.01 0.03,0.02l-0.03 -0.02 0 0 0 0zm0.06 0.03l0.02 0.02zm0.03 0.01l0 0.01 0 -0.01 0 0zm0 0.01l0.01 0 -0.01 0zm0.01 0l0 0 0 0zm0 0l0 0 0 0 0.01 0.01 -0.01 -0.01zm-0.01 -0.01l0 0 0 0 0 0zm0 0l0 0 0 0zm0 0l0 0 0 0 0 0zm0 0l-0.01 0 0 0 0.01 0zm-0.01 0l0 0 0 0zm0 0l0 0 0 0 0 0zm0 0l0 -0.01 0 0 0 0.01zm-0.01 -0.01c-0.01,-0.01 -0.02,-0.01 -0.03,-0.02zm0.1 0.07l0.04 0.02 -0.02 -0.01 -0.02 -0.01zm0.07 0.04l0 0 0 0 0.01 0 -0.01 0 0 0zm0.03 0.02c0.02,0.01 0.04,0.02 0.06,0.03 -0.01,0 -0.02,-0.01 -0.03,-0.01l0 0 0 0 0 0 0 0 0 0 0 0 -0.03 -0.02zm0.07 0.04l0 0 0 0 0.01 0.01 0 0zm0.03 0.02c0.02,0.01 0.04,0.02 0.06,0.04l0 0 -0.03 -0.02 0 0 -0.03 -0.02zm0.1 0.07c0.02,0.01 0.04,0.03 0.06,0.04l-0.02 -0.01 -0.02 -0.01 -0.02 -0.02zm0.1 0.07c0.02,0.01 0.04,0.03 0.06,0.05l-0.02 -0.02 -0.02 -0.01c-0.01,-0.01 -0.02,-0.02 -0.02,-0.02zm0.1 0.08c0.02,0.01 0.03,0.03 0.05,0.04l-0.01 -0.01 0 0 0 0 -0.03 -0.02 0 0 0 0 -0.01 -0.01zm0.09 0.07c0.02,0.02 0.04,0.03 0.05,0.04l-0.01 0 -0.02 -0.02 -0.02 -0.02 0 0 0 0 0 0zm0.1 0.08l0 0 0 0 0 0zm0.01 0.01c0.01,0.01 0.02,0.02 0.03,0.03l-0.01 -0.01 -0.02 -0.02zm0.07 0.07l0.01 0.01 0 -0.01 -0.01 0zm0.04 0.03l0.01 0.01 0 -0.01 -0.01 0zm0.06 0.05l0.01 0.02 -0.01 -0.01 0 -0.01zm0.03 0.04l0.01 0 0 0 -0.01 0zm0.06 0.05l0.02 0.02 0 0 -0.01 -0.01 -0.01 -0.01 0 0zm-6.65 -0.82l0 -0.01 0 0.01zm0.06 -0.04l0 0 0 0zm0 0l0 0 0 0zm0 0l0 0 0 0zm0.14 -0.07l0 0 0 0 0 0 0 0 0 -0.01 0 0 0 0 0 0 0 0 0.01 0 -0.02 0.01 0.01 0zm0.02 -0.02l0.01 0 -0.01 0zm0.04 -0.02l0 0 0 0 0 0zm0 0l0 0 0 0zm0 0l0 0 0 0zm0 0l0 0 0 0zm0 0l0.03 -0.01 -0.03 0.01zm0 0l0 0 0 0 0 0zm0 0l0 0.01 0 0 0 -0.01zm0 0.01l0 0 0 0 0 0zm0 0l0 0 0 0 0 0zm0 0l0 0 0 0 0 0zm0 0l-0.01 0 0 0 0.01 0zm-0.01 0l0 0 0 0 0 0zm0 0l0 0 0 0 0 0zm0 0l0 0 0 0 0 0zm0 0l0 0 0 0 0 0zm0 0l0 0 0 0 0 0zm0 0l0 0 0 0 0 0zm0 0l0 0 0 0 0 0zm-0.02 0.01l0 0 0 0zm0 0l0 0 0 0 0 0zm0.08 -0.04l0.01 0 0 0 0 -0.01 0 0 0 0 0 0 0 0 0.01 0 0 0 0 0 -0.02 0.01zm0.02 -0.01l0 0 0 0zm0 0l0 0 0 0zm0 0l0 0 0 0 0 0 0 0 0 0 0 0 0.01 0 0 0 0 0 0.03 -0.02c-0.01,0.01 -0.03,0.01 -0.04,0.02zm0.07 -0.03c0.02,-0.01 0.04,-0.02 0.05,-0.03 -0.01,0.01 -0.03,0.02 -0.05,0.03zm0.09 -0.04c0.02,-0.01 0.03,-0.02 0.05,-0.03 -0.02,0.01 -0.03,0.02 -0.05,0.03zm1.65 -0.46l0.04 -0.01 -0.04 0.01zm0.04 -0.01l0 0 0 0z"/>
    <path class="fil2" d="M33.27 10.4l0.04 -0.02 0 0 0 0 -0.01 0 0 0.01 0 0 -0.02 0 0 0 0 0 -0.01 0 0 0.01zm0.07 -0.03l0 0 0 0 0 0 0 0 0 0 0 0zm0.01 0l0 0 0 0 0 0 0.02 0 -0.02 0 0 0zm1.83 -0.23l0 0 0 0 0 0 0 0 0 0 0.01 0 0 0 0 0 0 0 0 0 -0.01 0 0 0 0 0 0 0 0 0 0 0zm-3.2 0.85l0 0c0.2,-0.13 0.4,-0.24 0.61,-0.33l-0.04 0.01 0 0.01 0 0 -0.01 0 0 0 -0.05 0.02 0 0.01 -0.01 0 0 0 0 0 -0.01 0.01 -0.01 0 0 0 0 0 -0.01 0 -0.03 0.02 -0.01 0 0 0 -0.02 0.02 -0.01 0 0 0 -0.03 0.02 0 0 -0.01 0 -0.03 0.02 -0.04 0.02 -0.01 0 -0.03 0.02 -0.02 0.01 -0.05 0.03 -0.03 0.01c-0.01,0.01 -0.03,0.03 -0.05,0.04l-0.01 0c-0.02,0.02 -0.04,0.03 -0.06,0.04l-0.02 0.01 -0.01 0.01zm0.65 -0.35c0.02,-0.01 0.04,-0.02 0.06,-0.03 -0.02,0.01 -0.04,0.02 -0.06,0.03z"/>
    <path class="fil3" d="M33.24 10.41l0 0c0.08,-0.03 0.16,-0.05 0.24,-0.08l-0.01 0.01 -0.04 0.01 -0.05 0.01 -0.03 0.01 -0.04 0.01 -0.01 0.01 -0.02 0 -0.04 0.02zm0.26 -0.08c0.02,-0.01 0.04,-0.01 0.06,-0.02l-0.01 0.01 0.04 -0.02 0 0.01c0.01,-0.01 0.03,-0.01 0.04,-0.01l0.01 -0.01 0 0 0.01 0 0 0 -0.01 0 -0.01 0.01 0 0zm0.03 -0.01l0.01 0 0 0 -0.01 0zm0.06 -0.02l0.01 0 0 0 -0.01 0zm0.02 0l0.01 0 0 0zm-0.03 0l-0.01 0.01 -0.03 0 0 0 -0.01 0.01z"/>
    <path class="fil4" d="M33.88 10.24l0 0 0 0 0 0zm0 0l0.01 0 0 0zm0 0l0 0 0 0 0 0 0 0 0 0 0 0 0 0 0 0zm0.02 -0.01l0.01 0 0 0 0 0 0 0 0 0 0 0 0 0 0 0 0 0 0 0 0 0zm0 0l0.01 0 0 0 0 0 0 0 0 0zm0 0l0 0 0 0 0 0 0 0 0 0 0.02 0 0 0 -0.02 0zm0 0l-0.01 0 0 0zm0 0l0 0 0 0 0 0zm0 0l0 0 0 0 0 0z"/>
    <path class="fil5" d="M30.76 8.81c-1.19,0.16 -1.09,1.71 -0.17,1.96 0.25,-0.61 0.6,-1.16 1.03,-1.64 -0.2,-0.23 -0.51,-0.37 -0.86,-0.32z"/>
    <path class="fil5" d="M36.35 10.32l0 0 0 0 0 0 0 0 0 0 0 0 -0.04 -0.01c-0.01,-0.01 -0.03,-0.01 -0.04,-0.01 0.04,0.01 0.07,0.02 0.11,0.03l-0.03 -0.01zm-0.13 -0.03l0 0 0 -0.01 -0.01 0 0 0 -0.04 -0.01c-0.01,0 -0.02,0 -0.04,0 0.04,0.01 0.08,0.01 0.12,0.02 -0.01,0 -0.02,0 -0.03,0zm0.2 0.05c0.03,0.01 0.06,0.01 0.09,0.02l-0.02 0 0 0 0 0 -0.05 -0.02 0 0 0 0 0 0 -0.02 0zm0.12 0.03l0.01 0.01 0 0 0.01 0 0.02 0 -0.03 0 0 0 0 -0.01 -0.01 0zm0.07 0.02l0.02 0.01 -0.02 -0.01zm0.02 0.01l0 0 0 0zm0 0l0.01 0 0 0 -0.01 0zm0.01 0l0 0 0 0zm0 0l0 0 0 0zm0 0l0 0 0 0zm0 0l0 0 0 0 0 0zm0.05 0.02l0 0 0 0zm0.04 0.01l0.03 0.01 -0.03 -0.01zm0.03 0.01l0 0 0 0zm0 0l0 0 0 0zm0 0l0 0 0 0zm0 0l0 0 0 0zm0 0l0 0 0 0zm0 0l0 0 0 0 0 0zm0.09 0.04l0.04 0.01 -0.04 -0.01zm0.12 0.04l0.04 0.02 -0.04 -0.02z"/>
    <path class="fil5" d="M33.69 7.18c-0.51,0.13 -0.74,0.5 -0.76,0.89 0.51,-0.31 1.08,-0.53 1.67,-0.66 -0.22,-0.21 -0.54,-0.32 -0.91,-0.23z"/>
    <path class="fil5" d="M30.22 12.3c-0.06,0.05 -0.11,0.11 -0.16,0.18 -0.18,0.23 -0.22,0.53 -0.15,0.79 0.08,-0.17 0.18,-0.34 0.28,-0.51 0,-0.16 0.01,-0.31 0.03,-0.46z"/>
    <path class="fil6" d="M30.79 9.18c-0.3,0.15 -0.1,0.52 0.17,0.43 0.27,-0.09 0.13,-0.58 -0.17,-0.43z"/>
    <path class="fil6" d="M30.48 9.81c-0.12,0.04 -0.21,0.11 -0.17,0.29 0.03,0.11 0.15,0.2 0.3,0.15 0.26,-0.07 0.16,-0.52 -0.13,-0.44z"/>
    <path class="fil6" d="M33.86 7.52c-0.1,0.03 -0.15,0.1 -0.17,0.17 0.13,-0.05 0.26,-0.09 0.38,-0.14 -0.05,-0.04 -0.12,-0.06 -0.21,-0.03z"/>
    <path class="fil7" d="M29.82 11.27c-0.32,0.1 -0.15,0.53 0.15,0.41 0.23,-0.09 0.12,-0.49 -0.15,-0.41z"/>
    <path class="fil7" d="M37.88 10.98l0.02 0.02 0 0 -0.02 -0.02zm0.07 0.05l0.03 0.02 -0.02 -0.01 -0.01 -0.01zm0.1 0.06c0.01,0.01 0.02,0.02 0.04,0.03l-0.02 -0.01 0 0 -0.02 -0.02zm0.1 0.08l0.04 0.03 -0.01 -0.01 -0.02 -0.01 -0.01 -0.01z"/>
    <path class="fil7" d="M31.64 7.69c-0.29,0.12 -0.12,0.51 0.15,0.41 0.25,-0.09 0.13,-0.52 -0.15,-0.41z"/>
   </g>
   <g>
    <path class="fil0" d="M35.47 7.29c-2.85,0.17 -5.23,2.48 -5.28,5.47 0.95,-1.5 2.59,-2.51 4.44,-2.61 3.16,-0.18 5.69,2.3 5.86,5.25 0.01,0.14 0.01,0.28 0.01,0.41 0.58,-0.93 0.9,-2.05 0.83,-3.26 -0.16,-2.96 -2.7,-5.44 -5.86,-5.26z"/>
    <path class="fil1" d="M35.22 7.98c-1.15,0.14 -2.12,0.63 -2.91,1.38 -0.11,0.11 -0.18,0.2 -0.3,0.33 -0.35,0.38 -0.71,1.04 -0.88,1.55 -0.06,0.18 -0.11,0.36 -0.15,0.54 0.95,-0.95 2.24,-1.55 3.65,-1.63 2.85,-0.16 5.19,1.84 5.74,4.4 0.26,-0.72 0.36,-1.51 0.27,-2.25 -0.12,-1.04 -0.5,-1.82 -1.09,-2.57l-0.28 -0.32c-1,-1.05 -2.58,-1.59 -4.05,-1.43z"/>
    <path class="fil5" d="M32.6 10.27c-0.57,0.07 -0.84,0.47 -0.87,0.88 0.46,-0.32 0.97,-0.57 1.51,-0.74 -0.18,-0.12 -0.4,-0.18 -0.64,-0.14z"/>
    <path class="fil5" d="M38.69 10.22c-0.49,0.07 -0.77,0.38 -0.84,0.74 0.51,0.32 0.96,0.72 1.34,1.18 0.39,-0.17 0.69,-0.58 0.61,-1.08 -0.08,-0.49 -0.52,-0.92 -1.11,-0.84z"/>
    <path class="fil5" d="M35.53 8.64c-0.79,0.21 -0.91,0.98 -0.61,1.5 0.53,0 1.04,0.07 1.52,0.2 0.24,-0.22 0.39,-0.56 0.3,-0.96 -0.12,-0.47 -0.6,-0.89 -1.21,-0.74z"/>
    <path class="fil6" d="M38.36 11.24c-0.02,0.01 -0.04,0.02 -0.06,0.04 0.13,0.1 0.25,0.2 0.36,0.3 0.11,-0.17 -0.04,-0.46 -0.3,-0.34z"/>
    <path class="fil6" d="M36.05 9.64c-0.29,0.15 -0.06,0.54 0.21,0.41 0.26,-0.13 0.07,-0.56 -0.21,-0.41z"/>
    <path class="fil6" d="M39.1 11.24c-0.27,0.16 -0.07,0.54 0.21,0.42 0.27,-0.13 0.07,-0.57 -0.21,-0.42z"/>
    <path class="fil6" d="M38.73 10.59c-0.29,0.1 -0.13,0.56 0.18,0.42 0.25,-0.1 0.12,-0.53 -0.18,-0.42z"/>
    <path class="fil6" d="M35.32 9.63c-0.25,0.12 -0.12,0.53 0.18,0.43 0.27,-0.09 0.12,-0.57 -0.18,-0.43z"/>
    <path class="fil6" d="M35.7 8.98c-0.32,0.11 -0.13,0.54 0.15,0.44 0.26,-0.1 0.14,-0.54 -0.15,-0.44z"/>
    <path class="fil7" d="M37.62 9.15c-0.28,0.11 -0.14,0.51 0.15,0.41 0.26,-0.08 0.14,-0.52 -0.15,-0.41z"/>
    <path class="fil7" d="M34.33 10.17c-0.04,-0.01 -0.09,0 -0.14,0.02 0.05,-0.01 0.09,-0.01 0.14,-0.02z"/>
    <path class="fil7" d="M39.73 12.44c-0.12,0.05 -0.15,0.16 -0.13,0.25 0.03,0.04 0.05,0.08 0.07,0.12 0.06,0.04 0.13,0.06 0.22,0.04 0.11,-0.04 0.18,-0.17 0.13,-0.3 -0.03,-0.1 -0.17,-0.17 -0.29,-0.11z"/>
    <path class="fil7" d="M33.48 9.15c-0.29,0.12 -0.12,0.51 0.15,0.41 0.24,-0.09 0.13,-0.52 -0.15,-0.41z"/>
    <path class="fil7" d="M37.16 10.42c-0.07,0.03 -0.11,0.08 -0.13,0.13 0.13,0.05 0.27,0.11 0.4,0.18 0.07,-0.16 -0.06,-0.4 -0.27,-0.31z"/>
   </g>
   <g>
    <path class="fil0" d="M34.63 10.15c-2.98,0.17 -5.45,2.68 -5.27,5.87 0.16,2.97 2.69,5.43 5.87,5.26 2.97,-0.17 5.43,-2.7 5.26,-5.88 -0.17,-2.95 -2.7,-5.43 -5.86,-5.25z"/>
    <path class="fil1" d="M34.38 10.84c-1.15,0.13 -2.12,0.62 -2.91,1.37 -0.11,0.11 -0.18,0.2 -0.3,0.33 -0.35,0.38 -0.71,1.05 -0.88,1.56 -0.24,0.68 -0.33,1.4 -0.24,2.17 0.28,2.51 2.56,4.66 5.43,4.32 1.15,-0.13 2.11,-0.63 2.9,-1.38 0.19,-0.18 0.39,-0.44 0.56,-0.67 0.68,-0.93 1,-2.22 0.86,-3.39 -0.12,-1.04 -0.5,-1.81 -1.09,-2.57l-0.29 -0.32c-0.99,-1.04 -2.57,-1.59 -4.04,-1.42z"/>
    <path class="fil2" d="M34.85 13.68c-0.38,0.08 -0.27,0.38 -0.72,0.32 -0.35,-0.06 -0.54,0.11 -0.59,0.43 -0.08,0.47 -0.33,0.26 -0.5,0.55 -0.22,0.39 0.15,0.51 0.07,0.82 -0.03,0.13 -0.32,0.46 0.02,0.75 0.1,0.09 0.24,0.12 0.31,0.21 0.15,0.15 0.01,0.51 0.39,0.66 0.2,0.07 0.3,-0.03 0.48,0 0.24,0.04 0.32,0.4 0.69,0.32 0.36,-0.07 0.27,-0.38 0.71,-0.31 0.37,0.06 0.54,-0.1 0.6,-0.43 0.07,-0.47 0.32,-0.26 0.49,-0.55 0.24,-0.42 -0.13,-0.51 -0.06,-0.82 0.03,-0.12 0.33,-0.45 -0.03,-0.76 -0.09,-0.08 -0.23,-0.12 -0.31,-0.2 -0.1,-0.11 -0.06,-0.26 -0.12,-0.41 -0.17,-0.4 -0.58,-0.23 -0.74,-0.26 -0.23,-0.03 -0.32,-0.4 -0.69,-0.32z"/>
    <path class="fil3" d="M34.68 14.26c-0.73,0.14 -1.36,0.82 -1.21,1.71 0.13,0.71 0.83,1.35 1.71,1.19 0.71,-0.13 1.35,-0.82 1.19,-1.7 -0.12,-0.71 -0.82,-1.35 -1.69,-1.2z"/>
    <path class="fil4" d="M34.77 14.55c-0.6,0.09 -1.1,0.62 -1.01,1.32 0.09,0.6 0.63,1.1 1.33,1 0.59,-0.08 1.09,-0.62 0.99,-1.31 -0.08,-0.6 -0.62,-1.1 -1.31,-1.01z"/>
    <path class="fil5" d="M31.76 13.12c-1.35,0.18 -1.04,2.17 0.26,1.98 0.5,-0.07 0.93,-0.54 0.84,-1.13 -0.07,-0.49 -0.53,-0.93 -1.1,-0.85z"/>
    <path class="fil5" d="M34.69 18c-1.31,0.33 -0.79,2.26 0.48,1.93 0.46,-0.11 0.87,-0.59 0.73,-1.2 -0.11,-0.47 -0.6,-0.89 -1.21,-0.73z"/>
    <path class="fil5" d="M37.85 13.08c-1.34,0.17 -1.04,2.15 0.26,1.97 0.5,-0.06 0.94,-0.54 0.85,-1.14 -0.08,-0.48 -0.52,-0.91 -1.11,-0.83z"/>
    <path class="fil5" d="M34.69 11.5c-1.32,0.33 -0.78,2.26 0.48,1.93 0.46,-0.12 0.87,-0.6 0.72,-1.2 -0.11,-0.47 -0.59,-0.89 -1.2,-0.73z"/>
    <path class="fil5" d="M37.78 16.34c-0.5,0.1 -0.91,0.57 -0.79,1.18 0.1,0.48 0.57,0.89 1.18,0.78 0.49,-0.1 0.9,-0.58 0.78,-1.18 -0.09,-0.48 -0.58,-0.9 -1.17,-0.78z"/>
    <path class="fil5" d="M31.67 16.39c-0.31,0.07 -0.46,0.2 -0.61,0.4 -0.5,0.67 0.08,1.76 1.03,1.55 0.47,-0.1 0.89,-0.58 0.76,-1.19 -0.1,-0.47 -0.59,-0.9 -1.18,-0.76z"/>
    <path class="fil8" d="M35.13 16.63c0.49,-0.05 1.06,-0.79 0.52,-1.52 -0.07,-0.1 -0.33,-0.3 -0.52,-0.31 -0.01,0.15 -0.01,0.37 0,0.52 0.01,0.17 0.15,0.17 0.15,0.39 0,0.22 -0.14,0.24 -0.15,0.37 -0.02,0.13 0,0.41 0,0.55z"/>
    <path class="fil8" d="M34.71 16.62c0.09,-0.84 -0.14,-0.59 -0.14,-0.91 0,-0.33 0.23,-0.04 0.14,-0.91 -0.37,0.04 -0.73,0.47 -0.73,0.91 0,0.45 0.36,0.88 0.73,0.91z"/>
    <path class="fil6" d="M32.18 17.39c-0.29,0.15 -0.12,0.52 0.17,0.43 0.29,-0.1 0.12,-0.58 -0.17,-0.43z"/>
    <path class="fil6" d="M37.52 14.09c-0.24,0.12 -0.11,0.52 0.18,0.43 0.29,-0.09 0.14,-0.58 -0.18,-0.43z"/>
    <path class="fil6" d="M35.21 18.99c-0.29,0.16 -0.06,0.55 0.21,0.42 0.26,-0.13 0.08,-0.57 -0.21,-0.42z"/>
    <path class="fil6" d="M35.21 12.49c-0.29,0.16 -0.06,0.55 0.21,0.41 0.26,-0.12 0.07,-0.56 -0.21,-0.41z"/>
    <path class="fil6" d="M38.28 17.35c-0.08,0.03 -0.09,0 -0.13,0.11 -0.09,0.24 0.15,0.4 0.33,0.3 0.23,-0.13 0.09,-0.54 -0.2,-0.41z"/>
    <path class="fil6" d="M37.87 16.7c-0.27,0.15 -0.08,0.55 0.21,0.42 0.27,-0.13 0.06,-0.57 -0.21,-0.42z"/>
    <path class="fil6" d="M38.26 14.1c-0.28,0.15 -0.07,0.54 0.21,0.41 0.27,-0.13 0.06,-0.57 -0.21,-0.41z"/>
    <path class="fil6" d="M31.44 17.39c-0.29,0.13 -0.11,0.53 0.17,0.42 0.28,-0.1 0.14,-0.56 -0.17,-0.42z"/>
    <path class="fil6" d="M37.55 17.33c-0.26,0.09 -0.16,0.52 0.14,0.45 0.28,-0.07 0.19,-0.56 -0.14,-0.45z"/>
    <path class="fil6" d="M37.89 13.44c-0.29,0.1 -0.13,0.56 0.18,0.43 0.25,-0.11 0.12,-0.53 -0.18,-0.43z"/>
    <path class="fil6" d="M32.21 14.13c-0.32,0.11 -0.17,0.52 0.13,0.44 0.28,-0.08 0.16,-0.54 -0.13,-0.44z"/>
    <path class="fil6" d="M31.79 13.49c-0.3,0.15 -0.11,0.52 0.17,0.43 0.27,-0.09 0.13,-0.58 -0.17,-0.43z"/>
    <path class="fil6" d="M34.85 18.34c-0.3,0.09 -0.14,0.54 0.16,0.43 0.25,-0.09 0.15,-0.53 -0.16,-0.43z"/>
    <path class="fil6" d="M34.48 18.99c-0.26,0.11 -0.12,0.53 0.18,0.43 0.27,-0.09 0.13,-0.57 -0.18,-0.43z"/>
    <path class="fil6" d="M31.47 14.13c-0.12,0.03 -0.21,0.11 -0.16,0.28 0.02,0.12 0.14,0.2 0.29,0.16 0.27,-0.08 0.16,-0.53 -0.13,-0.44z"/>
    <path class="fil6" d="M34.48 12.49c-0.26,0.11 -0.12,0.53 0.18,0.42 0.27,-0.09 0.12,-0.57 -0.18,-0.42z"/>
    <path class="fil6" d="M34.85 11.83c-0.32,0.11 -0.12,0.54 0.16,0.44 0.25,-0.1 0.14,-0.54 -0.16,-0.44z"/>
    <path class="fil6" d="M31.82 16.73c-0.11,0.04 -0.21,0.12 -0.17,0.28 0.03,0.12 0.14,0.21 0.3,0.16 0.26,-0.07 0.16,-0.53 -0.13,-0.44z"/>
    <path class="fil7" d="M37.67 15.58c-0.24,0.08 -0.2,0.5 0.12,0.43 0.28,-0.07 0.18,-0.52 -0.12,-0.43z"/>
    <path class="fil7" d="M36.56 17.75c-0.28,0.11 -0.14,0.52 0.15,0.41 0.25,-0.09 0.14,-0.52 -0.15,-0.41z"/>
    <path class="fil7" d="M36.78 12c-0.28,0.11 -0.14,0.51 0.15,0.41 0.25,-0.08 0.14,-0.52 -0.15,-0.41z"/>
    <path class="fil7" d="M30.82 15.59c-0.32,0.1 -0.15,0.52 0.14,0.41 0.24,-0.1 0.13,-0.5 -0.14,-0.41z"/>
    <path class="fil7" d="M33.34 13.05c-0.27,0.14 -0.07,0.52 0.19,0.39 0.26,-0.12 0.07,-0.53 -0.19,-0.39z"/>
    <path class="fil7" d="M38.89 15.29c-0.27,0.13 -0.1,0.49 0.16,0.41 0.1,-0.03 0.18,-0.16 0.13,-0.3 -0.04,-0.1 -0.17,-0.16 -0.29,-0.11z"/>
    <path class="fil7" d="M32.2 15.68c-0.3,0.11 -0.13,0.51 0.15,0.41 0.25,-0.08 0.12,-0.5 -0.15,-0.41z"/>
    <path class="fil7" d="M32.64 12.01c-0.29,0.11 -0.12,0.51 0.15,0.4 0.24,-0.09 0.13,-0.52 -0.15,-0.4z"/>
    <path class="fil7" d="M32.92 19.1c-0.08,0.03 -0.1,0 -0.13,0.11 -0.03,0.07 -0.03,0.12 0,0.19 0.05,0.1 0.18,0.16 0.31,0.09 0.21,-0.1 0.09,-0.49 -0.18,-0.39z"/>
    <path class="fil7" d="M36.32 13.27c-0.29,0.14 -0.11,0.5 0.15,0.41 0.25,-0.08 0.12,-0.53 -0.15,-0.41z"/>
    <path class="fil7" d="M36.89 18.82c-0.26,0.1 -0.13,0.51 0.15,0.4 0.25,-0.09 0.15,-0.51 -0.15,-0.4z"/>
    <path class="fil7" d="M33.38 18.16c-0.26,0.09 -0.12,0.5 0.15,0.4 0.25,-0.08 0.13,-0.49 -0.15,-0.4z"/>
   </g>
   <path class="fil9" d="M13.77 17.14c-1.17,-0.59 -1.94,1.16 -0.88,1.72 0.52,0.28 1.1,0.06 1.33,-0.38 0.29,-0.56 0.11,-1.06 -0.45,-1.34zm-3.5 -0.17c0,0.45 0.03,0.96 0.19,1.31 0.45,-0.08 0.95,-0.25 1.21,-0.53l-1.4 -0.78zm-0.75 -2.26c-1.26,-0.44 -1.77,1.48 -0.59,1.84 1.23,0.38 1.9,-1.4 0.59,-1.84zm-0.89 -2.23c-0.34,0.08 -0.82,0.48 -1.08,0.73 0.1,0.21 0.01,0.09 0.21,0.27 0.02,0.02 0.22,0.17 0.29,0.22 0.24,0.19 0.26,0.26 0.57,0.33l0.01 -1.55zm0.91 -2.53c-1.26,-0.44 -1.81,1.47 -0.6,1.85 1.19,0.38 1.89,-1.4 0.6,-1.85zm10.11 0.54l-1.29 -0.01c-0.23,-0.48 -0.49,-0.62 -1.16,-0.56 -0.29,-0.3 -0.57,-0.26 -0.82,-0.44 0.14,-0.28 0.05,-0.72 -0.09,-1.32l-1.13 0.55c0.09,0.2 0.02,0.01 0.2,0.16l0.56 0.39c-0.32,0.2 -2.44,-0.14 -3.39,1.23l-0.62 0.02 0 0.74c-0.02,0.02 -0.05,0.05 -0.06,0.07l-0.1 0.14c-0.02,0.02 -0.03,0.05 -0.04,0.07 -0.52,0.95 -0.49,3.04 0.22,3.71 0.2,0.49 0.5,0.74 0.82,1.03 0.14,0.13 0.22,0.17 0.35,0.25 0.94,0.58 1.76,0.68 2.9,0.63l-0.9 0.6c0.09,0.11 -0.01,0.04 0.15,0.16l1.06 0.41 0.18 -1.35c0.29,-0.1 0.5,-0.14 0.67,-0.44 0.83,0.25 1.32,-0.31 1.3,-1.14 0.46,-0.41 0.63,-1.28 0.71,-2.01 0.01,-0.02 -0.02,-0.16 -0.01,-0.17 0,-0.01 0.07,0.06 0.08,0.05l0.25 -0.16 0.72 -0.31c0.25,2.36 -1.1,4.59 -2.81,5.84 -1.72,1.27 -4.56,1.55 -6.7,0.5 -3.01,-1.48 -4.51,-5.11 -3.1,-8.49 0.26,-0.62 0.75,-1.45 1.25,-1.87 0.32,-0.25 0.39,-0.24 0.39,-0.61l1.11 0.36 -0.09 0.99c0.45,-0.14 1.04,-0.46 1.3,-0.78l0.85 0.04c0.2,0.35 0.38,0.71 0.98,0.7 0.61,0 0.84,-0.32 0.92,-0.86 0.46,-0.14 1.03,-0.25 1.54,-0.42 0.51,-0.17 0.91,-0.42 1.38,-0.57 0.43,0.36 0.2,0.2 0.71,0.63 0.69,0.59 1.23,1.4 1.71,2.24z"/>
   <path class="fil10" d="M7.96 7.24c-0.16,0.43 -4.24,4.04 -1.81,9.37 1.14,2.51 4.04,4.98 7.85,4.71 6.59,-0.46 9.79,-7.91 6,-12.91l-1.59 -1.65c0.12,-0.25 0.56,-0.38 0.84,-0.52 1.11,1.01 2.27,2.25 2.88,4.29 1.72,5.83 -2.42,11.8 -8.63,11.87 -4.4,0.05 -7.31,-2.68 -8.6,-5.65 -0.8,-1.81 -0.9,-3.99 -0.35,-6.02 0.35,-1.29 1.77,-3.84 2.83,-4.32 0.16,0.43 0.3,0.51 0.58,0.83z"/>
   <path class="fil11" d="M20.99 1.49c-0.29,0.15 -0.98,1.02 -2.55,1.72 -2.2,1.01 -4.9,1.48 -7.36,1.12 -1.17,-0.17 -2.49,-0.66 -2.91,-1.41 0.13,-0.45 0.89,-0.9 1.58,-1.13 1.17,-0.39 3.77,-0.38 5.2,-0.48 0.85,-0.06 1.66,-0.26 2.46,-0.33l-0.32 0.96c1.26,0.2 2.57,-0.32 3.44,-0.5 0.73,-0.16 0.27,-0.08 0.46,0.05z"/>
   <path class="fil12" d="M16.38 9.48c0.25,0.18 0.53,0.14 0.82,0.44 -0.46,0.18 -0.86,0.67 -0.63,1.32 0.22,0.62 0.94,0.16 1.46,0.32l0.52 0.97 -0.4 1.55c0.2,-0.13 0.25,-0.17 0.5,-0.36l0.55 -0.55c-0.07,0.73 -0.28,1.81 -0.74,2.22 -0.84,-1.97 -3.1,0.4 -1.3,1.14 -0.17,0.3 -0.38,0.34 -0.67,0.44l-0.49 0.18c-1.14,0.05 -1.96,-0.05 -2.9,-0.63 -0.13,-0.08 -0.21,-0.12 -0.35,-0.25 -0.34,-0.31 -0.44,-0.32 -0.33,-0.48 0.53,-0.01 1.09,0.1 1.29,-0.24 0.33,-0.56 -0.02,-0.87 -0.24,-1.25 0.53,-0.47 0.97,-0.3 0.82,-1.6 0.47,-0.75 0.42,-1.08 0.38,-2.16l-2.14 -0.05c0.95,-1.37 3.07,-1.03 3.39,-1.23l0.46 0.22z"/>
   <path class="fil13" d="M20.77 2.36l-0.11 0.12c-0.02,0.01 -0.04,0.04 -0.05,0.06l-0.42 0.61c-0.17,0.23 -0.39,0.43 -0.58,0.62 -3.88,3.91 -10.99,3.56 -11.93,0.31 -0.01,-0.5 0.14,-0.91 0.49,-1.16 0.42,0.75 1.74,1.24 2.91,1.41 2.46,0.36 5.16,-0.11 7.36,-1.12 1.57,-0.7 2.26,-1.57 2.55,-1.72l-0.22 0.87z"/>
   <path class="fil14" d="M9.24 8.16c0,0.37 -0.07,0.36 -0.39,0.61 -0.5,0.42 -0.99,1.25 -1.25,1.87 -1.41,3.38 0.09,7.01 3.1,8.49 2.14,1.05 4.98,0.77 6.7,-0.5 1.71,-1.25 3.04,-3.47 2.79,-5.84 0.12,-0.25 0.13,-0.07 0.34,-0.28 0.61,0.88 -0.35,6.99 -5.97,7.92 -5.44,0.9 -10.06,-4.39 -7.96,-9.88 0.5,-1.31 1.24,-2.08 1.94,-2.79l0.7 0.4z"/>
   <path class="fil15" d="M7.96 7.24l0.41 0.39c-0.7,0.4 -1.75,1.96 -2.15,3.15 -1.39,4.09 0.83,8.44 4.95,9.69 1.4,0.42 3.14,0.47 4.51,-0.03 0.99,-0.37 1.76,-0.74 2.54,-1.4 1.73,-1.48 2.81,-3.76 2.69,-6.23 -0.02,-0.37 -0.05,-2.13 -0.18,-2.31l-0.31 0.01c-0.42,-0.78 -0.58,-1.19 -1.06,-1.86 -0.23,-0.32 -1.13,-1.22 -1.44,-1.43 0.25,-0.24 0.13,-0.35 0.48,-0.47l1.6 1.66c3.79,5 0.59,12.45 -6,12.91 -3.81,0.27 -6.71,-2.2 -7.85,-4.71 -2.43,-5.33 1.65,-8.94 1.81,-9.37z"/>
   <path class="fil16" d="M7.68 4.08c0.94,3.25 8.05,3.6 11.93,-0.31 0.19,-0.19 0.41,-0.39 0.58,-0.62l0.42 -0.61c0.01,-0.02 0.03,-0.05 0.05,-0.06l0.11 -0.12c-1.01,4.49 -7.44,6.88 -11.1,5.18 -1.97,-0.91 -2.47,-2.81 -1.99,-3.46z"/>
   <path class="fil17" d="M20.53 12.51c0.25,-0.52 0.28,-1.3 0.2,-2.01 0.13,0.18 0.16,1.94 0.18,2.31 0.12,2.47 -0.96,4.75 -2.69,6.23 -0.78,0.66 -1.55,1.03 -2.54,1.4 -1.37,0.5 -3.11,0.45 -4.51,0.03 -4.12,-1.25 -6.34,-5.6 -4.95,-9.69 0.4,-1.19 1.45,-2.75 2.15,-3.15l0.17 0.13c-0.7,0.71 -1.44,1.48 -1.94,2.79 -2.1,5.49 2.52,10.78 7.96,9.88 5.62,-0.93 6.58,-7.04 5.97,-7.92z"/>
   <path class="fil18" d="M3.51 14.1c-0.77,-0.06 -2.43,-0.31 -2.76,-0.89 0.57,-0.53 1.86,-0.72 2.77,-0.81l-0.01 1.7z"/>
   <path class="fil18" d="M17 25.28c-0.61,-0.38 -0.98,-1.58 -1.16,-2.47l1.64 -0.57c0.01,1 0.01,2.32 -0.48,3.04z"/>
   <path class="fil18" d="M26.02 13.17c-0.21,0.38 -0.66,0.5 -1.22,0.66 -0.51,0.14 -1.03,0.23 -1.58,0.25l0.01 -1.66c1.01,0.02 2.1,0.36 2.79,0.75z"/>
   <path class="fil18" d="M10.63 22.73c-0.48,0.51 -1.79,1.5 -2.84,1.64 0.1,-0.79 0.72,-1.83 1.16,-2.27l1.68 0.63z"/>
   <path class="fil19" d="M9.54 9.95c1.29,0.45 0.59,2.23 -0.6,1.85 -1.21,-0.38 -0.66,-2.29 0.6,-1.85z"/>
   <path class="fil19" d="M9.52 14.71c1.31,0.44 0.64,2.22 -0.59,1.84 -1.18,-0.36 -0.67,-2.28 0.59,-1.84z"/>
   <path class="fil19" d="M13.77 17.14c0.56,0.28 0.74,0.78 0.45,1.34 -0.23,0.44 -0.81,0.66 -1.33,0.38 -1.06,-0.56 -0.29,-2.31 0.88,-1.72z"/>
   <path class="fil19" d="M18.46 15.39c0.02,0.83 -0.47,1.39 -1.3,1.14 -1.8,-0.74 0.46,-3.11 1.3,-1.14z"/>
   <path class="fil12" d="M12.52 12.83c-0.2,0.54 0.09,0.9 0.18,1.27 -0.6,0.16 -0.8,0.47 -0.77,1.14 -0.71,-0.67 -0.74,-2.76 -0.22,-3.71 0.01,-0.02 0.02,-0.05 0.04,-0.07l0.1 -0.14c0.01,-0.02 0.04,-0.05 0.06,-0.07 0,0.99 0.27,1.04 0.61,1.58z"/>
   <path class="fil19" d="M18.36 10.48l-0.45 0.01 -0.02 1.4c-0.52,-0.17 -1.1,-0.03 -1.32,-0.65 -0.23,-0.65 0.17,-1.14 0.63,-1.32 0.67,-0.06 0.93,0.08 1.16,0.56z"/>
   <path class="fil14" d="M20.11 10.5l-0.46 -0.01c-0.48,-0.84 -1.02,-1.65 -1.71,-2.24 -0.51,-0.43 -0.31,-0.27 -0.71,-0.63l0.49 -0.26c0.51,0.59 2.06,1.65 2.39,3.14z"/>
   <path class="fil19" d="M13.5 14.36c-0.29,-0.2 -0.37,-0.23 -0.8,-0.26 -0.15,-0.37 -0.44,-0.77 -0.24,-1.31 0.82,0.28 1.18,0.28 1.9,-0.12 0.15,1.3 -0.33,1.23 -0.86,1.69z"/>
   <path class="fil20" d="M13.06 14.41c0.93,0.38 0.43,1.53 -0.43,1.28 -0.86,-0.26 -0.34,-1.6 0.43,-1.28z"/>
   <path class="fil21" d="M13.06 14.41c-0.77,-0.32 -1.29,1.02 -0.43,1.28 0.86,0.25 1.36,-0.9 0.43,-1.28zm0.65 1.14c-0.41,0.71 -1.63,0.65 -1.78,-0.31 -0.03,-0.67 0.17,-0.98 0.77,-1.14 0.89,-0.06 1.43,0.73 1.01,1.45z"/>
   <path class="fil22" d="M12.41 8.77l1.9 -0.16c-0.08,0.54 -0.31,0.86 -0.92,0.86 -0.6,0.01 -0.78,-0.35 -0.98,-0.7z"/>
   <path class="fil17" d="M20.46 10.52l-0.35 0.02c-0.33,-1.49 -1.88,-2.59 -2.39,-3.18l0.2 -0.14c0.31,0.21 1.21,1.11 1.44,1.43 0.48,0.67 0.68,1.1 1.1,1.87z"/>
   <path class="fil23" d="M8.62 14.03c-0.31,-0.07 -0.33,-0.14 -0.57,-0.33 -0.07,-0.05 -0.27,-0.2 -0.29,-0.22 -0.2,-0.18 -0.11,-0.06 -0.21,-0.27 0.26,-0.25 0.74,-0.65 1.08,-0.73l-0.01 1.55z"/>
   <path class="fil23" d="M16 17.15l0.49 -0.18 -0.18 1.35 -1.06 -0.41c-0.16,-0.12 -0.06,-0.05 -0.15,-0.16l0.9 -0.6z"/>
   <path class="fil23" d="M11.67 17.75c-0.26,0.28 -0.76,0.45 -1.21,0.53 -0.16,-0.35 -0.19,-0.86 -0.19,-1.31l1.4 0.78z"/>
   <path class="fil23" d="M16.38 9.48l-0.46 -0.22 -0.63 -0.37c-0.19,-0.15 -0.02,-0.03 -0.22,-0.2l1.22 -0.53c0.14,0.6 0.23,1.04 0.09,1.32z"/>
   <path class="fil24" d="M19.49 13.1c-0.3,0.19 -0.51,0.4 -0.84,0.62 -0.25,0.19 -0.3,0.23 -0.5,0.36l-0.02 -1.5c0.45,0.25 0.58,0.52 1.36,0.52z"/>
   <path class="fil23" d="M11.56 8.73c-0.26,0.32 -0.85,0.64 -1.3,0.78l0.09 -0.99 1.21 0.21z"/>
   <g>
    <path class="fil25" d="M36.78 26.47c0.9,0.4 0.51,-0.95 0,-0.48 -0.32,0.3 0,0.48 0,0.48zm-0.65 0.17c-0.22,-0.53 0.06,-1.09 0.45,-1.26 0.51,-0.23 1.09,0.03 1.28,0.42 0.58,1.24 -1.28,1.93 -1.73,0.84z"/>
    <path class="fil26" d="M36.78 26.47c0,0 -0.32,-0.18 0,-0.48 0.51,-0.47 0.9,0.88 0,0.48z"/>
    <circle class="fil27" cx="37.01" cy="26.22" r="1.83"/>
    <circle class="fil28" cx="37.01" cy="26.22" r="0.99"/>
    <circle class="fil27 str0" cx="37.01" cy="26.22" r="0.36"/>
    <rect class="fil27" x="38.35" y="16.1" width="0.15" height="5.47"/>
    <rect class="fil27" transform="matrix(-4.6045E-14 -1 -1.73856 2.64845E-14 39.73 17.3384)" width="0.15" height="5.47"/>
    <rect class="fil27" x="36.23" y="16.1" width="0.15" height="5.47"/>
    <rect class="fil27" x="34.11" y="16.1" width="0.15" height="5.95"/>
    <rect class="fil27" x="31.99" y="16.1" width="0.15" height="5.95"/>
    <rect class="fil27" transform="matrix(-4.6045E-14 -1 -1.73856 2.64845E-14 39.73 19.2007)" width="0.15" height="5.47"/>
    <rect class="fil27" transform="matrix(-4.12793E-14 -1 -1.55862 2.64845E-14 39.6543 21.0631)" width="0.15" height="5.47"/>
   </g>
   <path class="fil26" d="M20.53 12.51c-0.79,0.81 -1.74,0.74 -2.3,0.08 -0.47,-0.54 -0.33,-1.43 -0.32,-2.1l0.45 -0.01 1.29 0.01 0.43 0.01 0.65 0c0.08,0.71 0.05,1.49 -0.2,2.01z"/>
   <ellipse class="fil27" cx="19.27" cy="11.25" rx="1.6" ry="1.86"/>
   <circle class="fil28" cx="18.8" cy="11.34" r="0.47"/>
   <ellipse class="fil27" cx="13.37" cy="11.25" rx="1.6" ry="1.86"/>
   <path class="fil27" d="M14.53 12.51c-0.79,0.81 -1.74,0.74 -2.3,0.08 -0.47,-0.54 -0.33,-1.43 -0.32,-2.1l0.45 -0.01 1.29 0.01 0.43 0.01 0.65 0c0.08,0.71 0.05,1.49 -0.2,2.01z"/>
   <circle class="fil28" cx="12.78" cy="11.34" r="0.47"/>
   <path class="fil26" d="M36.13 26.64c0.45,1.09 2.31,0.4 1.73,-0.84 -0.19,-0.39 -0.77,-0.65 -1.28,-0.42 -0.39,0.17 -0.67,0.73 -0.45,1.26zm-19.13 -1.36c0.49,-0.72 0.49,-2.04 0.48,-3.04l-1.64 0.57c0.18,0.89 0.55,2.09 1.16,2.47zm-6.37 -2.55l-1.68 -0.63c-0.44,0.44 -1.06,1.48 -1.16,2.27 1.05,-0.14 2.36,-1.13 2.84,-1.64zm25.96 -1.39c0.19,-0.02 0.34,-0.03 0.45,-0.05l2.22 -0.29 0.61 -4.91 -6.31 0.06c-0.07,0 -0.13,0 -0.18,0 -0.09,0 -0.17,0.01 -0.22,0.01l-1.54 0.01 -0.05 0 0 0 -1.29 0.01 -0.01 0 0 0 -0.07 0 1.51 5.57 0.05 0.19 0 0 0 0.02 4.83 -0.62zm-18.67 -14.12l-0.2 0.14 -0.49 0.26c-0.47,0.15 -0.87,0.4 -1.38,0.57 -0.51,0.17 -1.08,0.28 -1.54,0.42l-1.9 0.16 -0.85 -0.04 -1.21 -0.21 -1.11 -0.36 -0.7 -0.4 -0.17 -0.13 -0.41 -0.39c-0.28,-0.32 -0.42,-0.4 -0.58,-0.83 -1.06,0.48 -2.48,3.03 -2.83,4.32 -0.55,2.03 -0.45,4.21 0.35,6.02 1.29,2.97 4.2,5.7 8.6,5.65 6.21,-0.07 10.35,-6.04 8.63,-11.87 -0.61,-2.04 -1.77,-3.28 -2.88,-4.29 -0.25,0.13 -1.11,0.77 -1.33,0.98zm-14.4 5.18c-0.91,0.09 -2.2,0.28 -2.77,0.81 0.33,0.58 1.99,0.83 2.76,0.89l0.01 -1.7zm22.5 0.77c-0.69,-0.39 -1.78,-0.73 -2.79,-0.75l-0.01 1.66c0.55,-0.02 1.07,-0.11 1.58,-0.25 0.56,-0.16 1.01,-0.28 1.22,-0.66zm14.58 3.68c-0.07,0.45 -0.13,0.98 -0.19,1.52l-0.38 3.01c-0.04,0.12 -0.08,0.21 -0.12,0.26 -0.19,0.17 -0.2,0.13 -0.56,0.18l-6.87 0.89c-0.62,0.08 -0.67,0.01 -0.99,0.41 -0.2,0.25 -0.82,0.85 -0.28,0.92 1.74,0.21 7.38,-0.12 8.14,0.03 0.49,0.1 0.63,0.63 0.16,0.81 -0.19,0.07 -0.9,0.01 -1.23,0.07 1.1,0.96 0.42,3.15 -1.35,3.08 -0.76,-0.02 -1.38,-0.56 -1.61,-1.11 -0.41,-1.02 0.14,-1.43 0.4,-2.01l-4.04 0c-1.45,0 -2.09,-0.77 -1.22,-1.9 0.42,-0.55 0.62,-0.47 0.37,-1.29 -0.16,-0.51 -0.29,-1.05 -0.43,-1.59 -0.54,-2.07 -1.13,-4.14 -1.66,-6.22 -0.54,-0.01 -1.08,0 -1.62,0 -0.98,-0.02 -0.58,-0.02 -1.3,0.31 -0.8,0.36 -1.79,0.48 -2.71,0.62 -0.61,3.19 -2.26,5.46 -4.96,7.02 0.07,1.1 0.07,3.85 -0.97,4.12 -1.15,0.29 -1.69,-2.05 -2.07,-2.99 -0.55,-0.01 -1.14,0.11 -1.72,0.11 -2.24,0.01 -1.21,-0.65 -2.75,0.58 -0.31,0.25 -0.75,0.56 -1.14,0.78 -0.65,0.37 -2.44,1.22 -2.4,-0.24 0.02,-0.92 0.87,-1.92 1.19,-2.49 -0.51,-0.5 -1.78,-1 -2.97,-2.77 -0.73,-1.08 -1.41,-2.44 -1.67,-4.04l-0.5 -0.16c-0.88,-0.14 -3.1,-0.44 -3.15,-1.46 -0.03,-0.63 0.8,-1.01 1.39,-1.19 0.32,-0.11 0.68,-0.2 1.04,-0.27 0.49,-0.09 0.89,-0.08 1.21,-0.25 0.39,-1.94 1.42,-4.1 2.77,-5.37 0.28,-0.27 0.45,-0.29 0.6,-0.63 -0.45,-1.24 0.12,-2.65 0.75,-3.37 1.54,-1.75 4.76,-1.44 7.08,-1.59 1.4,-0.09 2.44,-0.45 3.68,-0.63l-0.41 1.2c1.52,-0.18 2.44,-0.57 3.76,-0.9 -0.29,3.62 -1.53,4.21 -2.11,5.43 1.77,1.85 2.76,2.82 3.36,5.93 1.03,0.19 2.02,0.25 2.98,0.75 0.51,0.27 0.37,0.24 0.66,0.64l2.58 0.01 0.58 2.28 0.24 0 10.64 0 -0.2 1.51zm-32.43 -13.93c-0.35,0.25 -0.5,0.66 -0.49,1.16 -0.48,0.65 0.02,2.55 1.99,3.46 3.66,1.7 10.09,-0.69 11.1,-5.18l0.22 -0.87c-0.19,-0.13 0.27,-0.21 -0.46,-0.05 -0.87,0.18 -2.18,0.7 -3.44,0.5l0.32 -0.96c-0.8,0.07 -1.61,0.27 -2.46,0.33 -1.43,0.1 -4.03,0.09 -5.2,0.48 -0.69,0.23 -1.45,0.68 -1.58,1.13z"/>
   <path class="fil28 str1" d="M9.9 14.2c3.65,0.01 7.3,0.02 10.95,0.02 -0.61,1.34 -1.21,2.67 -2.17,3.57 -0.95,0.9 -2.25,1.36 -3.43,1.44 -1.18,0.07 -2.24,-0.24 -3.03,-0.83 -0.79,-0.58 -1.32,-1.43 -1.66,-2.17 -0.34,-0.75 -0.5,-1.39 -0.66,-2.03z"/>
   <path class="fil29 str2" d="M19.9 16.15c-3.03,0.13 -6.07,0.26 -7.58,0.32 -1.52,0.07 -1.52,0.07 -1.52,0.07"/>
  </g>
 </g>
</svg>
