<?xml version="1.0" encoding="UTF-8"?>
<!DOCTYPE svg PUBLIC "-//W3C//DTD SVG 1.1//EN" "http://www.w3.org/Graphics/SVG/1.1/DTD/svg11.dtd">
<!-- Creator: CorelDRAW 2020 (64 Bit) -->
<svg xmlns="http://www.w3.org/2000/svg" xml:space="preserve" width="142.534mm" height="98.0116mm" version="1.1" style="shape-rendering:geometricPrecision; text-rendering:geometricPrecision; image-rendering:optimizeQuality; fill-rule:evenodd; clip-rule:evenodd"
viewBox="0 0 11829.82 8134.61"
 xmlns:xlink="http://www.w3.org/1999/xlink"
 xmlns:xodm="http://www.corel.com/coreldraw/odm/2003">
 <defs>
  <style type="text/css">
   <![CDATA[
    .str0 {stroke:#191919;stroke-width:16.6;stroke-miterlimit:22.9256}
    .fil17 {fill:#191919}
    .fil18 {fill:#191919}
    .fil12 {fill:#221814}
    .fil15 {fill:#38A369}
    .fil14 {fill:#3B9B5C}
    .fil7 {fill:#3D3D3D}
    .fil4 {fill:#585858}
    .fil2 {fill:#787878}
    .fil8 {fill:#AE3821}
    .fil6 {fill:#D55D32}
    .fil9 {fill:#E68443}
    .fil1 {fill:#E98241}
    .fil11 {fill:#F15D72}
    .fil13 {fill:#F76946}
    .fil16 {fill:#FDFDFD}
    .fil10 {fill:#FE694C}
    .fil5 {fill:#FEA933}
    .fil0 {fill:#FECE52}
    .fil3 {fill:#FEEA93}
    .fil19 {fill:white}
   ]]>
  </style>
 </defs>
 <g id="Camada_x0020_1">
  <metadata id="CorelCorpID_0Corel-Layer"/>
  <g id="_2655182636224">
   <path class="fil0" d="M3991.6 4968.78c-337.92,-171.17 -560.08,337.77 -254.57,500.22 150.7,80.13 320.95,16.06 387.18,-110.81 83.98,-160.87 31.98,-306.04 -132.6,-389.41zm-1012.97 -47.51c-1.39,128.77 7.72,277.17 55.57,378.17 128.46,-20.96 275.41,-72.7 350.75,-153.44l-406.32 -224.73zm-217.09 -656.96c-367.44,-126.02 -514.3,429.01 -172.49,534.51 356.11,109.93 550.92,-404.72 172.49,-534.51zm-260 -645.5c-98.13,22.13 -238.03,139.58 -312.98,210.74 31.02,63.05 3.1,27.22 62.5,80.43 6.08,5.44 62.96,47.34 83.22,62.95 69.55,53.58 74.9,75.34 166.63,95.78l0.62 -449.9zm264.04 -733.63c-365.9,-127.76 -524.44,427.22 -174.32,537.61 347.51,109.57 548.76,-406.87 174.32,-537.61zm2932.88 156.85l-373.59 -4.14c-66.65,-137.82 -143.23,-179.2 -336.38,-162.04 -86.35,-87.76 -166.86,-75.56 -237.84,-128.3 40.6,-78.64 12.29,-208.62 -26.79,-380.63l-327.13 159.25c26.48,56.75 5.23,3.28 58.31,46.2l160.73 112.94c-93.42,58.65 -706.09,-41.18 -983.77,356.35l-177.4 7.29 -2.05 211.92c-6.03,6.49 -12.71,15.49 -16.47,20.85l-29.55 41.32c-4.01,6.57 -8.2,13.89 -11.93,20.69 -150.27,273.82 -140.65,880.92 63.5,1076.65 59.09,140.64 146.04,212.16 238.56,297.04 41.17,37.77 63.88,48.95 103.24,73.34 272.64,168.99 508.73,196.41 841.04,181.47l-261.07 174.89c24.52,32.57 -4.2,12.6 43.53,46.31l306.53 119.16 52.11 -392.55c83.64,-27.55 144.35,-40.1 193.95,-126.55 241.91,71.06 383.92,-89.03 376.58,-331.89 133.56,-116.59 184.31,-369.27 205.4,-582.72 2.56,-6.19 -5.4,-45.27 -3.1,-48.21 2.26,-2.9 20.62,17.29 23.53,14.01l72.71 -47.48 209.29 -89.64c71,686.6 -320.45,1331.25 -814.88,1694.82 -499.68,367.44 -1321.61,449.67 -1943.29,144.33 -872.96,-428.75 -1307.58,-1482.71 -898.96,-2461.05 75.57,-180.95 218.21,-421.19 364.2,-541.68 90.48,-74.69 110.79,-70.85 111.16,-178.48l322.15 105.37 -26.69 286.56c131.31,-40.7 302.24,-133.67 378.32,-225.13l245.78 10.15c58.11,101.76 110.34,206.53 284.24,204.57 177.76,-2 244.25,-93.33 265.95,-248.98 133.28,-42.01 299.07,-74.03 446.64,-123.21 148.95,-49.63 265.85,-123.01 400.17,-165.56 126.4,103.85 59.46,57.6 207.86,183.85 199.34,169.59 355.41,404.92 495.4,648.92z"/>
   <path class="fil1" d="M2309.6 2099.78c-46.47,123.96 -1231.68,1172.42 -526.55,2716.92 331.68,726.52 1170.81,1444.2 2276.78,1366.74 1911.76,-133.91 2839.32,-2293.77 1740.86,-3745.88l-461.29 -475.98c35.12,-74.52 162.53,-111.86 242.09,-151.23 323.6,293.28 659.25,650.39 834.6,1243.9 498.81,1688.24 -699.44,3419.97 -2502.34,3441.14 -1273.93,14.96 -2118.04,-778.58 -2494.05,-1637.17 -229.75,-524.62 -259.94,-1158.27 -100.06,-1747.95 101.33,-373.72 514.2,-1113.04 820.79,-1251.39 46.18,123.53 85.79,146.68 169.17,240.9z"/>
   <path class="fil2" d="M6087.15 432.24c-84.65,43.89 -285.96,294.16 -738.73,499.71 -639.57,290.36 -1421.59,427.87 -2136.47,322.76 -338.61,-49.78 -721.51,-190.55 -842.99,-407.5 37.5,-131.48 258.53,-261.41 459.25,-328.85 338.71,-113.8 1091.24,-109.84 1506.86,-138.63 246.08,-17.04 481.55,-75.47 714.08,-94.62l-92.52 277.04c363.05,57.6 742.97,-91.48 995.39,-144.94 211.62,-44.83 78.56,-22.28 135.13,15.02z"/>
   <path class="fil3" d="M4750.64 2747.55c70.98,52.74 151.49,40.54 237.84,128.3 -133.23,52.44 -251.62,194.95 -184.14,382.7 65.38,181.92 273.66,46.57 423.9,93.64l151.06 282.3 -115.4 447.51c57.83,-36.54 72.48,-47.79 142.89,-104.07l160.34 -159.43c-21.09,213.45 -81,526.52 -214.55,643.11 -241.88,-571.21 -898,115.64 -376.58,331.89 -49.61,86.46 -110.32,99.01 -193.95,126.55l-141.11 52.19c-332.32,14.94 -568.4,-12.48 -841.04,-181.47 -39.36,-24.39 -62.07,-35.57 -103.24,-73.34 -96.99,-88.97 -127.61,-92.63 -94.77,-137.62 152.27,-4.47 316.66,28.39 375,-71.46 94.58,-161.89 -7.13,-250.37 -72.14,-362.28 153.53,-135.39 283.87,-86.27 238.61,-464.18 135.77,-217.02 123.13,-311.69 109.48,-626.46l-620.84 -13.75c277.67,-397.54 890.34,-297.71 983.77,-356.35l134.88 62.25z"/>
   <path class="fil4" d="M6021.42 683.72l-31.44 34.24c-3.96,4.72 -10.47,12 -14.71,17.26l-119.69 177.45c-48.97,68.88 -113.41,124.77 -169.74,181.54 -1124.72,1133.63 -3185.77,1030.02 -3458.77,87.92 -3.24,-143.68 39.87,-263.95 141.87,-334.91 121.48,216.94 504.39,357.71 842.99,407.5 714.88,105.11 1496.9,-32.4 2136.47,-322.76 452.76,-205.56 654.08,-455.82 738.73,-499.71l-65.72 251.48z"/>
   <path class="fil5" d="M2678.64 2365.48c-0.37,107.63 -20.67,103.8 -111.16,178.48 -145.98,120.49 -288.63,360.74 -364.2,541.68 -408.62,978.35 26,2032.3 898.96,2461.05 621.68,305.34 1443.61,223.11 1943.29,-144.33 494.43,-363.57 880.83,-1007.3 809.84,-1693.9 33.31,-71.48 36.88,-18.96 96.96,-81.2 177.31,256.64 -100.74,2028.15 -1731.62,2296.89 -1577.44,259.93 -2915.42,-1272.54 -2307.98,-2865.4 144.66,-379.36 359.71,-602.55 563.27,-809.37l202.64 116.09z"/>
   <path class="fil6" d="M2309.6 2099.78l117.23 111.56c-203.93,115.76 -505.79,569.7 -622.62,913.82 -402.81,1186.38 240.52,2448.36 1435.03,2810.36 405.34,122.83 908.88,137.62 1307.15,-9.73 286.96,-106.18 511.07,-214.4 735.79,-405.89 503.54,-429.05 814.48,-1088.61 781.64,-1804.09 -4.95,-108 -14.55,-618.9 -52.77,-671.49l-88.63 3.85c-122.05,-225.39 -170.18,-347.07 -308.02,-539.72 -67.24,-93.99 -327.24,-352.59 -418.48,-414.05 71.73,-70.75 38.95,-103.61 140.27,-136.49l464.5 479.64c1098.46,1452.11 170.9,3611.96 -1740.86,3745.88 -1105.98,77.46 -1945.1,-640.22 -2276.78,-1366.74 -705.13,-1544.51 480.08,-2592.96 526.55,-2716.92z"/>
   <path class="fil7" d="M2227.08 1182.13c273,942.1 2334.05,1045.71 3458.77,-87.92 56.33,-56.77 120.77,-112.66 169.74,-181.54l119.69 -177.45c4.24,-5.26 10.75,-12.54 14.71,-17.26l31.44 -34.24c-291.96,1303.44 -2156.3,1996.18 -3217.97,1503.69 -571.25,-264.99 -716.32,-815.12 -576.37,-1005.28z"/>
   <path class="fil8" d="M5952.34 3627.28c73.12,-150.16 83.16,-375.59 58.71,-582.95 38.22,52.59 47.81,563.49 52.77,671.49 32.83,715.49 -278.1,1375.04 -781.64,1804.09 -224.72,191.49 -448.83,299.71 -735.79,405.89 -398.28,147.35 -901.81,132.56 -1307.15,9.73 -1194.51,-362 -1837.83,-1623.97 -1435.03,-2810.36 116.83,-344.12 418.69,-798.06 622.62,-913.82l49.18 38.05c-203.56,206.82 -418.61,430.01 -563.27,809.37 -607.43,1592.86 730.54,3125.33 2307.98,2865.4 1630.88,-268.74 1908.93,-2040.25 1731.62,-2296.89z"/>
   <path class="fil9" d="M1016.83 4087.77c-222.92,-16.29 -704.56,-88.28 -799.27,-258.23 164.93,-152.76 538.31,-207.28 802.95,-233.98l-3.68 492.21z"/>
   <path class="fil9" d="M4929.17 7330.6c-175.11,-110.11 -283.04,-458.57 -337.41,-716.57l476.04 -163.92c2.37,289.62 4.62,670.3 -138.64,880.48z"/>
   <path class="fil9" d="M7544.46 3819.99c-60.98,108.53 -190.88,143.81 -351.91,189 -148.44,41.65 -299.03,68.26 -459.78,75.14l1.88 -483.7c294.22,8.11 609.04,105.29 809.81,219.56z"/>
   <path class="fil9" d="M3081.83 6591.58c-140.05,148.53 -518.28,434.25 -822.11,474.12 27.72,-229.29 209.24,-528.54 335.96,-657.65l486.15 183.53z"/>
   <path class="fil10" d="M2765.58 2885.18c374.44,130.74 173.2,647.18 -174.32,537.61 -350.12,-110.39 -191.58,-665.37 174.32,-537.61z"/>
   <path class="fil10" d="M2761.54 4264.32c378.43,129.8 183.62,644.44 -172.49,534.51 -341.8,-105.51 -194.95,-660.54 172.49,-534.51z"/>
   <path class="fil10" d="M3991.6 4968.78c164.58,83.37 216.58,228.54 132.6,389.41 -66.23,126.87 -236.47,190.94 -387.18,110.81 -305.51,-162.45 -83.35,-671.39 254.57,-500.22z"/>
   <path class="fil10" d="M5352.58 4461.6c7.34,242.86 -134.67,402.95 -376.58,331.89 -521.42,-216.25 134.69,-903.09 376.58,-331.89z"/>
   <path class="fil3" d="M3631.01 3721.63c-57.44,154.51 24.71,259.89 50.67,366.44 -171.87,47.17 -230.57,137.63 -223.59,332.31 -204.15,-195.72 -213.77,-802.82 -63.5,-1076.65 3.73,-6.81 7.93,-14.13 11.93,-20.69l29.55 -41.32c3.77,-5.36 10.45,-14.36 16.47,-20.85 1.29,289.34 79.96,303.42 178.47,460.76z"/>
   <path class="fil10" d="M5324.87 3037.89l-132.2 3 -4.69 405.55c-150.25,-47.08 -318.26,-5.98 -383.64,-187.9 -67.48,-187.75 50.91,-330.26 184.14,-382.7 193.16,-17.16 269.74,24.22 336.38,162.04z"/>
   <path class="fil5" d="M5832.03 3044.38l-133.57 -2.35c-139.99,-244 -296.06,-479.34 -495.4,-648.92 -148.41,-126.25 -91.54,-79.99 -207.86,-183.85l142.52 -76.06c147.92,173.45 598.56,480.48 694.31,911.18z"/>
   <path class="fil10" d="M3914.93 4165.3c-85.11,-59.82 -107.37,-67.32 -233.24,-77.24 -43.34,-107.47 -126.35,-223.38 -68.91,-377.89 238.65,79.7 342.81,79.16 550.17,-36.58 45.27,377.92 -94.48,356.31 -248.01,491.7z"/>
   <path class="fil11" d="M3786.55 4177.39c271.07,110.68 124.28,445.85 -124.29,371.74 -248.34,-74.04 -99.72,-463.2 124.29,-371.74z"/>
   <path class="fil12" d="M3786.55 4177.39c-224.01,-91.46 -372.63,297.7 -124.29,371.74 248.57,74.11 395.35,-261.07 124.29,-371.74zm190.34 330.93c-120.69,206.55 -472.76,187.77 -518.8,-87.95 -6.98,-194.68 51.72,-285.14 223.59,-332.31 258.38,-18.08 416.73,212.26 295.21,420.26z"/>
   <path class="fil13" d="M3598.2 2542.44l550.19 -44.41c-21.7,155.65 -88.19,246.98 -265.95,248.98 -173.89,1.96 -226.13,-102.81 -284.24,-204.57z"/>
   <path class="fil8" d="M5933.86 3051.37l-101.37 4.9c-95.74,-430.69 -546.84,-749.62 -694.76,-923.07l58.2 -38.79c91.25,61.46 351.25,320.07 418.48,414.05 137.83,192.65 197.41,317.52 319.45,542.91z"/>
   <path class="fil14" d="M2500.92 4068.71c-91.74,-20.43 -97.08,-42.2 -166.63,-95.78 -20.26,-15.61 -77.14,-57.51 -83.22,-62.95 -59.4,-53.21 -31.49,-17.38 -62.5,-80.43 74.95,-71.15 214.84,-188.61 312.98,-210.74l-0.62 449.9z"/>
   <path class="fil14" d="M4640.94 4972.23l141.11 -52.19 -52.11 392.55 -306.53 -119.16c-47.73,-33.71 -19.01,-13.74 -43.53,-46.31l261.07 -174.89z"/>
   <path class="fil14" d="M3384.94 5146c-75.34,80.74 -222.29,132.49 -350.75,153.44 -47.85,-101.01 -56.95,-249.4 -55.57,-378.17l406.32 224.73z"/>
   <path class="fil14" d="M4750.64 2747.55l-134.88 -62.25 -183.15 -108.37c-53.08,-42.92 -5.3,-8.2 -62.43,-58.09l353.66 -151.92c39.08,172.01 67.39,301.99 26.79,380.63z"/>
   <path class="fil15" d="M5651.12 3797.19c-86.75,56.65 -147.63,117.37 -244.32,180.72 -70.41,56.28 -85.05,67.53 -142.89,104.07l-5.38 -434.69c129.71,74.37 166.69,151.18 392.59,149.9z"/>
   <path class="fil14" d="M3352.43 2532.29c-76.08,91.46 -247.01,184.43 -378.32,225.13l26.69 -286.56 351.63 61.43z"/>
   <g>
    <path class="fil16" d="M10665.48 7676.89c260.92,114.87 146.77,-277.61 -1.28,-139.52 -91.29,85.16 1.25,139.48 1.28,139.52zm-188.98 46.8c-63.15,-153.39 18.6,-315.71 129.4,-365.36 149.32,-66.9 318.01,10.08 371.61,123.16 170.03,358.72 -370.43,559.4 -501.01,242.2z"/>
    <path class="fil17" d="M10665.48 7676.89c-0.02,-0.04 -92.57,-54.35 -1.28,-139.52 148.05,-138.1 262.19,254.38 1.28,139.52z"/>
    <circle class="fil18" cx="10732.54" cy="7603.89" r="530.72"/>
    <circle class="fil19" cx="10732.54" cy="7603.89" r="286.38"/>
    <circle class="fil18 str0" cx="10732.54" cy="7603.89" r="104.3"/>
    <rect class="fil18" x="11120.25" y="4668.81" width="44.08" height="1586.5"/>
    <rect class="fil18" transform="matrix(-4.6045E-14 -1 -1.73856 2.64845E-14 11520.6 5027.62)" width="44.08" height="1586.5"/>
    <rect class="fil18" x="10505.39" y="4668.81" width="44.08" height="1586.5"/>
    <rect class="fil18" x="9890.52" y="4668.81" width="44.08" height="1725.58"/>
    <rect class="fil18" x="9275.65" y="4668.81" width="44.08" height="1725.58"/>
    <rect class="fil18" transform="matrix(-4.6045E-14 -1 -1.73856 2.64845E-14 11520.6 5567.65)" width="44.08" height="1586.5"/>
    <rect class="fil18" transform="matrix(-4.12793E-14 -1 -1.55862 2.64845E-14 11498.6 6107.69)" width="44.08" height="1586.5"/>
   </g>
   <path class="fil17" d="M5952.34 3627.28c-227.72,235.88 -503.11,213.82 -666.99,23.54 -135.98,-157.85 -94.92,-415.65 -92.67,-609.93l132.2 -3 373.59 4.14 123.5 2.35 189.09 -0.05c24.45,207.36 14.41,432.79 -58.71,582.95z"/>
   <circle class="fil19" cx="5450.77" cy="3288.44" r="135.42"/>
   <path class="fil18" d="M4212.04 3627.28c-227.72,235.88 -503.11,213.82 -666.99,23.54 -135.98,-157.85 -94.92,-415.65 -92.67,-609.93l132.2 -3 373.59 4.14 123.5 2.35 189.09 -0.05c24.45,207.36 14.41,432.79 -58.71,582.95z"/>
   <circle class="fil19" cx="3704.99" cy="3288.44" r="135.42"/>
   <path class="fil17" d="M10476.5 7723.69c130.58,317.2 671.04,116.52 501.01,-242.2 -53.6,-113.07 -222.29,-190.06 -371.61,-123.16 -110.8,49.65 -192.55,211.96 -129.4,365.36zm-5547.33 -393.09c143.26,-210.19 141,-590.87 138.64,-880.48l-476.04 163.92c54.36,257.99 162.29,606.45 337.41,716.57zm-1847.33 -739.03l-486.15 -183.53c-126.72,129.11 -308.24,428.36 -335.96,657.65 303.83,-39.86 682.06,-325.59 822.11,-474.12zm7528.06 -402.34c56.39,-5.74 98.93,-10.57 131.03,-16.64l644.37 -81.85 175.21 -1424.62 -1829.63 17.62c-18.8,-0.53 -36.8,-0.79 -52.36,-0.31 -26.78,0.83 -47.53,1.19 -63.65,1.42l-446.95 4.31 -12.36 -0.11 0.13 0.22 -376.28 3.63 -0.98 -0.72 0.17 0.72 -20.29 0.2 436.3 1614.29 13.81 54.53 0.9 -0.1 1.39 5.14 1399.2 -177.73zm-5413.97 -4094.83l-58.2 38.79 -142.52 76.06c-134.32,42.55 -251.21,115.93 -400.17,165.56 -147.57,49.18 -313.35,81.2 -446.64,123.21l-550.19 44.41 -245.78 -10.15 -351.63 -61.43 -322.15 -105.37 -202.64 -116.09 -49.18 -38.05 -117.23 -111.56c-83.39,-94.22 -122.99,-117.37 -169.17,-240.9 -306.59,138.35 -719.46,877.67 -820.79,1251.39 -159.88,589.68 -129.69,1223.33 100.06,1747.95 376.01,858.59 1220.12,1652.14 2494.05,1637.17 1802.9,-21.17 3001.15,-1752.9 2502.34,-3441.14 -175.35,-593.51 -511,-950.62 -834.6,-1243.9 -71.68,35.46 -321.94,221.3 -385.57,284.06zm-4175.41 1501.16c-264.64,26.7 -638.02,81.22 -802.95,233.98 94.72,169.95 576.35,241.93 799.27,258.23l3.68 -492.21zm6523.95 224.43c-200.77,-114.27 -515.59,-211.45 -809.81,-219.56l-1.88 483.7c160.76,-6.88 311.34,-33.5 459.78,-75.14 161.04,-45.19 290.94,-80.47 351.91,-189zm4229.68 1064.65c-22.7,132.15 -40.43,285.23 -56.23,440.85l-111.59 874.89c-10.12,33.23 -21.21,58.68 -33.6,74.56 -56.29,49.92 -57.28,36.43 -161.06,52.26l-1994.01 259.27c-180.47,21.9 -193.21,0.26 -287.08,117.85 -57.03,71.38 -237.84,247.69 -80.34,266.92 504.98,61.61 2138.65,-35.36 2359.46,9.64 141.92,28.92 184.15,182.67 48.45,233.42 -56.74,21.22 -263.63,4.42 -357.95,21.12 319.5,279.13 123.13,912.26 -392.66,893.7 -218.48,-7.87 -399.51,-163.26 -464.87,-324.28 -119.85,-295.22 38.56,-414.63 115.16,-581.18l-1170.54 -0.13c-422.78,-0.45 -606.7,-222.96 -354.06,-552.29 122.14,-159.2 179.38,-134.95 106.56,-373.13 -45.53,-148.9 -83.59,-303.89 -124.98,-461.94 -156.89,-599.15 -326.27,-1198.83 -479.78,-1801.87 -156.88,-2.57 -313.62,0.17 -470.37,-2.26 -285.62,-4.43 -168.2,-4.19 -378.74,91.89 -230.32,105.11 -518.71,137.92 -785.01,178.14 -176.82,925.57 -654.76,1584.88 -1436.83,2037.59 20.65,316.72 19.74,1116.4 -283.03,1194.1 -332.03,85.21 -489.29,-595.7 -600.01,-867.39 -159.88,-1.53 -331.3,31.46 -497.65,32.16 -649.31,2.74 -351.9,-188.68 -797.43,168.99 -89.48,71.83 -219.06,160.03 -331.71,225.17 -187.65,108.52 -707.06,352.68 -696.83,-71 6.41,-265.58 254.57,-554.39 347.29,-721.31 -148.26,-143.14 -517.1,-290.11 -862.42,-803.42 -210.81,-313.36 -409.71,-707.26 -485.29,-1169.69l-143.67 -46.35c-253.69,-42.31 -897.88,-127.29 -913.06,-425.62 -9.25,-181.84 230.42,-290.96 401.36,-344.78 95.62,-30.11 198.96,-56.87 303.17,-76.87 142.31,-27.31 257.7,-23.86 349.81,-72.6 112.78,-563.98 413.68,-1189.79 802.66,-1557.48 81.57,-77.1 130.87,-85.48 176.08,-182.96 -130.74,-360.45 34.3,-767.99 216.55,-976.01 446.06,-509.14 1379.55,-419.61 2051.93,-461.62 406.67,-25.41 707.47,-130.35 1068.67,-183.01l-120.27 347.05c442.7,-51.31 709.48,-163.79 1091.05,-260.99 -84.37,1050.43 -444.62,1223.11 -612.5,1576.82 514.33,534.17 800.08,816.22 975.22,1717.09 300.08,55.06 585.89,72.37 864.78,218.8 146.91,77.14 106.55,68.46 191,186.75l749.16 2.26 167.04 659.66 69.13 0.71 3084.72 0 -55.68 436.51zm-9405.18 -4037.43c-102,70.95 -145.11,191.22 -141.87,334.91 -139.95,190.15 5.12,740.29 576.37,1005.28 1061.67,492.49 2926.01,-200.25 3217.97,-1503.69l65.72 -251.48c-56.57,-37.3 76.5,-59.86 -135.13,-15.02 -252.43,53.47 -632.34,202.54 -995.39,144.94l92.52 -277.04c-232.52,19.16 -467.99,77.59 -714.08,94.62 -415.62,28.79 -1168.15,24.83 -1506.86,138.63 -200.72,67.43 -421.75,197.37 -459.25,328.85z"/>
  </g>
 </g>
</svg>
