<?xml version="1.0" encoding="UTF-8"?>
<!DOCTYPE svg PUBLIC "-//W3C//DTD SVG 1.1//EN" "http://www.w3.org/Graphics/SVG/1.1/DTD/svg11.dtd">
<!-- Creator: CorelDRAW 2020 (64 Bit) -->
<svg xmlns="http://www.w3.org/2000/svg" xml:space="preserve" width="1496px" height="1496px" version="1.1" style="shape-rendering:geometricPrecision; text-rendering:geometricPrecision; image-rendering:optimizeQuality; fill-rule:evenodd; clip-rule:evenodd"
viewBox="0 0 1403.06 1402.91"
 xmlns:xlink="http://www.w3.org/1999/xlink"
 xmlns:xodm="http://www.corel.com/coreldraw/odm/2003">
 <defs>
  <style type="text/css">
   <![CDATA[
    .fil0 {fill:#7F1D1D;fill-rule:nonzero}
   ]]>
  </style>
 </defs>
 <g id="Camada_x0020_1">
  <metadata id="CorelCorpID_0Corel-Layer"/>
  <path class="fil0" d="M182.39 1402.91l1038.28 0c100.62,0 182.39,-81.78 182.39,-182.39l0 -709.97 -182.39 182.39 0 527.58 -1038.28 0 0 -1038.13 831.87 0 146.37 -146.37c13.83,-13.83 29.03,-25.84 45.3,-36.02l-1023.54 0c-100.62,0 -182.39,81.77 -182.39,182.39l0 1038.28c0,100.47 81.77,182.24 182.39,182.24z" data-original="#000000"/>
  <g id="_3251203486144">
  </g>
  <g id="_3251203490416">
  </g>
  <g id="_3251203489648">
  </g>
  <g id="_3251203493056">
  </g>
  <g id="_3251203491856">
  </g>
  <g id="_3251203494256">
  </g>
  <g id="_3251203496272">
  </g>
  <g id="_3251203686272">
  </g>
  <g id="_3251203687280">
  </g>
  <g id="_3251203688912">
  </g>
  <g id="_3251203690352">
  </g>
  <g id="_3251203690112">
  </g>
  <g id="_3251203694960">
  </g>
  <g id="_3251203692176">
  </g>
  <g id="_3251203697024">
  </g>
  <path class="fil0" d="M1220.67 1402.91l-1038.28 0c-100.62,0 -182.39,-81.78 -182.39,-182.39l0 -709.97 182.39 182.39 0 527.58 1038.28 0 0 -1038.13 -831.87 0 -146.37 -146.37c-13.83,-13.83 -29.03,-25.84 -45.29,-36.02l1023.53 0c100.62,0 182.39,81.77 182.39,182.39l0 1038.28c0,100.47 -81.77,182.24 -182.39,182.24z" data-original="#000000"/>
 </g>
</svg>
