<?xml version="1.0"?>
<svg xmlns="http://www.w3.org/2000/svg" xmlns:xlink="http://www.w3.org/1999/xlink" xmlns:svgjs="http://svgjs.com/svgjs" version="1.1" width="512" height="512" x="0" y="0" viewBox="0 0 987.331 987.332" style="enable-background:new 0 0 512 512" xml:space="preserve"><g>
<g xmlns="http://www.w3.org/2000/svg">
	<path d="M120,955.166h683.1c66.2,0,120-53.801,120-120v-467.1l-120,120v347.1H120v-683h547.3l96.3-96.3   c9.101-9.1,19.101-17,29.801-23.7H120c-66.2,0-120,53.8-120,120v683.1C0,901.365,53.8,955.166,120,955.166z" fill="#7f1d1d" data-original="#000000" style=""/>
	<path d="M958.2,99.465c-19.4-20.1-44.8-30.8-70.5-32.3c-2.101-0.1-4.101-0.2-6.2-0.2c-27.3,0-54.6,10.4-75.5,31.3l-334,334   c-11.3-12.101-81.1-82.4-81.1-82.4c-20.801-20.8-48.2-31.3-75.5-31.3c-27.3,0-54.601,10.4-75.5,31.3c-41.7,41.7-41.7,109.3,0,151   l81.8,81.801l75.5,75.5c20,20,47.2,31.301,75.5,31.301s55.5-11.201,75.5-31.301l406.2-406.2   C996,210.266,999.2,141.766,958.2,99.465z" fill="#7f1d1d" data-original="#000000" style=""/>
</g>
<g xmlns="http://www.w3.org/2000/svg">
</g>
<g xmlns="http://www.w3.org/2000/svg">
</g>
<g xmlns="http://www.w3.org/2000/svg">
</g>
<g xmlns="http://www.w3.org/2000/svg">
</g>
<g xmlns="http://www.w3.org/2000/svg">
</g>
<g xmlns="http://www.w3.org/2000/svg">
</g>
<g xmlns="http://www.w3.org/2000/svg">
</g>
<g xmlns="http://www.w3.org/2000/svg">
</g>
<g xmlns="http://www.w3.org/2000/svg">
</g>
<g xmlns="http://www.w3.org/2000/svg">
</g>
<g xmlns="http://www.w3.org/2000/svg">
</g>
<g xmlns="http://www.w3.org/2000/svg">
</g>
<g xmlns="http://www.w3.org/2000/svg">
</g>
<g xmlns="http://www.w3.org/2000/svg">
</g>
<g xmlns="http://www.w3.org/2000/svg">
</g>
</g></svg>
