<?xml version="1.0" encoding="UTF-8"?>
<!DOCTYPE svg PUBLIC "-//W3C//DTD SVG 1.1//EN" "http://www.w3.org/Graphics/SVG/1.1/DTD/svg11.dtd">
<!-- Creator: CorelDRAW 2020 (64 Bit) -->
<svg xmlns="http://www.w3.org/2000/svg" xml:space="preserve" width="1600px" height="1600px" version="1.1" style="shape-rendering:geometricPrecision; text-rendering:geometricPrecision; image-rendering:optimizeQuality; fill-rule:evenodd; clip-rule:evenodd"
viewBox="0 0 734.54 734.57"
 xmlns:xlink="http://www.w3.org/1999/xlink"
 xmlns:xodm="http://www.corel.com/coreldraw/odm/2003">
 <defs>
  <style type="text/css">
   <![CDATA[
    .fil0 {fill:#7F1D1D;fill-rule:nonzero}
    .fil1 {fill:white;fill-rule:nonzero}
   ]]>
  </style>
 </defs>
 <g id="Camada_x0020_1">
  <metadata id="CorelCorpID_0Corel-Layer"/>
  <g id="_2346442021136">
   <path class="fil0" d="M367.28 0c-202.87,0 -367.28,164.45 -367.28,367.28 0,202.86 164.43,367.29 367.28,367.29 202.84,0 367.26,-164.43 367.26,-367.29 0,-202.81 -164.42,-367.28 -367.26,-367.28z" data-original="#3db39e"/>
   <path class="fil1" d="M507.91 210.79c-15.61,-9.32 -35.56,-3.79 -44.54,12.4l-123.15 221.22 -68.59 -83.49c-12.42,-14.3 -28.92,-21.72 -44.51,-12.4 -15.61,9.35 -22.06,31.82 -11.96,46.24l95.45 116.17c7.14,9.28 15.28,14.83 23.8,16.42l0.07 0.14 0.87 0.04c1.93,0.3 30.77,5.63 43.18,-16.59l141.36 -253.91c8.97,-16.21 3.63,-36.9 -11.98,-46.24z" data-original="#3db39e"/>
  </g>
 </g>
</svg>
