<svg height="512pt" viewBox="0 0 512 512" width="512pt" xmlns="http://www.w3.org/2000/svg"><path d="m315.949219 453.707031 182.191406-439.847656-439.851563 182.191406c46.628907 112.566407 136.199219 207.347657 257.660157 257.65625zm0 0" fill="#ffe477"/><path d="m369.1875 325.179688-38.960938 94.058593c-18.140624-14.285156-25.382812-39.386719-16.109374-61.773437 9.269531-22.382813 32.140624-35.011719 55.070312-32.285156zm-19.226562-169.253907c9.246093-22.324219 2.074218-47.347656-15.960938-61.652343l-85.425781 35.386718c-2.636719 22.863282 9.984375 45.632813 32.304687 54.878906 26.980469 11.175782 57.910156-1.636718 69.082032-28.613281zm-129.140626 35.445313c6.832032-16.492188 4.699219-34.464844-4.15625-48.496094l-96.273437 39.878906c3.65625 16.183594 14.855469 30.402344 31.351563 37.234375 26.976562 11.171875 57.90625-1.640625 69.078124-28.617187zm55.46875 45.890625c-26.980468-11.175781-57.90625 1.632812-69.082031 28.613281s1.636719 57.90625 28.613281 69.082031c26.980469 11.175781 57.910157-1.636719 69.082032-28.613281 11.175781-26.980469-1.636719-57.910156-28.613282-69.082031zm148.355469-65.84375c-26.980469-11.175781-57.910156 1.632812-69.082031 28.613281-11.175781 26.980469 1.636719 57.90625 28.613281 69.082031 2.386719.988281 4.804688 1.789063 7.238281 2.410157l40.050782-96.691407c-2.160156-1.28125-4.433594-2.425781-6.820313-3.414062zm46.269531-133.855469-97.59375 40.425781c4.882813 13.472657 15.195313 24.925781 29.476563 30.84375 23.515625 9.738281 50.035156 1.257813 63.855469-18.949219l8.363281-20.199218c2.078125-11.070313.5-22.289063-4.101563-32.121094zm0 0" fill="#ffb655"/><path d="m246.296875 237.257812c-26.976563-11.175781-57.90625 1.636719-69.082031 28.617188-11.175782 26.976562 1.636718 57.90625 28.613281 69.082031 26.980469 11.175781 57.910156-1.636719 69.085937-28.613281 11.175782-26.980469-1.636718-57.910156-28.617187-69.085938zm0 0" fill="#ff3f62"/><path d="m315.949219 453.707031c-121.460938-50.308593-211.03125-145.089843-257.660157-257.65625l-48.488281 20.085938c51.765625 124.976562 151.210938 230.207031 286.0625 286.0625zm0 0" fill="#ffb655"/><g fill="#ff3f62"><path d="m372.796875 108.832031c26.980469 11.171875 57.90625-1.640625 69.082031-28.617187 5.917969-14.28125 5.109375-29.671875-.964844-42.652344l-97.59375 40.421875c4.882813 13.476563 15.195313 24.929687 29.476563 30.847656zm0 0"/><path d="m250.882812 184.539062c26.976563 11.175782 57.90625-1.636718 69.082032-28.613281 9.246094-22.320312 2.070312-47.347656-15.964844-61.652343l-85.425781 35.386718c-2.636719 22.863282 9.984375 45.632813 32.308593 54.878906zm0 0"/><path d="m121.742188 219.988281c26.976562 11.171875 57.90625-1.636719 69.082031-28.617187 6.832031-16.492188 4.695312-34.464844-4.160157-48.496094l-96.273437 39.878906c3.65625 16.183594 14.855469 30.402344 31.351563 37.234375zm0 0"/><path d="m364.894531 335.542969c-3.519531-2.660157-7.429687-4.921875-11.695312-6.691407-26.980469-11.175781-57.910157 1.636719-69.082031 28.617188-11.175782 26.976562 1.632812 57.90625 28.613281 69.082031 4.265625 1.765625 8.632812 2.933594 13 3.539063zm0 0"/><path d="m422.101562 197.4375c-5.433593-11.355469-14.914062-20.824219-27.457031-26.019531-26.980469-11.175781-57.910156 1.636719-69.082031 28.613281-11.175781 26.976562 1.636719 57.90625 28.613281 69.082031 12.546875 5.195313 25.945313 5.207031 37.8125 1.015625zm0 0"/></g><path d="m88.289062 196.050781 403.640626-167.191406 6.210937-15-439.851563 182.191406c46.628907 112.566407 136.199219 207.347657 257.660157 257.65625l4.695312-11.339843c-108.617187-52.472657-189.027343-141.714844-232.355469-246.316407zm0 0" fill="#ffb655"/><path d="m235.820312 334.957031c-26.976562-11.175781-39.789062-42.105469-28.613281-69.082031 6.351563-15.335938 19.085938-26.09375 33.851563-30.46875-25.632813-7.621094-53.394532 5.21875-63.851563 30.46875-11.175781 26.976562 1.632813 57.90625 28.613281 69.082031 11.640626 4.824219 24.019532 5.175781 35.230469 1.855469-1.753906-.523438-3.5-1.140625-5.230469-1.855469zm0 0" fill="#c70024"/><path d="m39.800781 216.136719 23.007813-9.535157c-1.546875-3.5-3.054688-7.015624-4.519532-10.550781l-48.488281 20.085938c51.765625 124.976562 151.210938 230.207031 286.0625 286.0625l4.667969-11.265625c-121.992188-58.078125-212.261719-157.78125-260.730469-274.796875zm0 0" fill="#ff7956"/><path d="m402.796875 108.832031c-14.28125-5.917969-24.59375-17.371093-29.476563-30.84375l71.3125-29.539062c-.84375-3.757813-2.089843-7.410157-3.71875-10.886719l-97.597656 40.425781c4.886719 13.472657 15.195313 24.925781 29.480469 30.84375 11.640625 4.820313 24.019531 5.175781 35.230469 1.855469-1.753906-.523438-3.5-1.140625-5.230469-1.855469zm0 0" fill="#c70024"/><path d="m280.882812 184.539062c-22.324218-9.246093-34.945312-32.015624-32.308593-54.878906l64.167969-26.582031c-2.53125-3.234375-5.453126-6.199219-8.738282-8.804687l-85.429687 35.386718c-2.636719 22.863282 9.988281 45.632813 32.308593 54.878906 11.640626 4.824219 24.019532 5.179688 35.230469 1.855469-1.757812-.523437-3.503906-1.140625-5.230469-1.855469zm0 0" fill="#c70024"/><path d="m151.742188 219.988281c-16.496094-6.832031-27.695313-21.050781-31.351563-37.234375l71.324219-29.542968c-1.304688-3.613282-2.996094-7.078126-5.050782-10.335938l-96.273437 39.878906c3.660156 16.183594 14.855469 30.402344 31.351563 37.234375 11.640624 4.820313 24.019531 5.175781 35.226562 1.851563-1.753906-.519532-3.5-1.136719-5.226562-1.851563zm0 0" fill="#c70024"/><path d="m314.117188 357.46875c6.351562-15.335938 19.085937-26.09375 33.851562-30.472656-25.632812-7.617188-53.394531 5.222656-63.851562 30.472656-11.175782 26.976562 1.632812 57.90625 28.613281 69.082031 4.265625 1.765625 8.632812 2.933594 13.003906 3.539063l4.492187-10.851563c-18.140624-14.285156-25.382812-39.386719-16.109374-61.769531zm0 0" fill="#c70024"/><path d="m384.175781 269.113281c-26.976562-11.175781-39.789062-42.105469-28.613281-69.082031 6.351562-15.335938 19.085938-26.09375 33.851562-30.46875-25.632812-7.621094-53.394531 5.21875-63.851562 30.46875-11.175781 26.976562 1.636719 57.90625 28.613281 69.082031 11.640625 4.820313 24.019531 5.175781 35.226563 1.855469-1.753906-.523438-3.5-1.140625-5.226563-1.855469zm0 0" fill="#c70024"/><path d="m65.21875 193.179688-2.871094-6.929688-62.347656 25.828125 2.871094 6.925781c26.640625 64.324219 64.816406 121.972656 113.460937 171.347656 50.363281 51.121094 109.800781 91.082032 176.660157 118.777344l6.929687 2.867188 25.824219-62.347656-6.929688-2.867188c-115.636718-47.902344-205.699218-137.964844-253.597656-253.601562zm226.605469 299.171874c-122.96875-52.96875-219.210938-149.210937-272.175781-272.175781l34.632812-14.347656c23.871094 55.246094 57.300781 104.894531 99.433594 147.660156 43.691406 44.347657 94.949218 79.386719 152.457031 104.226563zm0 0"/><path d="m159.335938 213.058594c-20.375 8.433594-43 .933594-54.757813-16.214844l-12.367187 8.484375c15.679687 22.867187 45.792968 32.800781 72.867187 21.585937 27.164063-11.25 41.324219-39.640624 36.261719-66.789062l-14.746094 2.746094c3.816406 20.472656-6.917969 41.761718-27.257812 50.1875zm0 0"/><path d="m375.667969 101.902344c-6.332031-2.625-11.847657-6.519532-16.386719-11.578125l-11.164062 10.019531c6.050781 6.742188 13.386718 11.929688 21.808593 15.417969 30.75 12.738281 66.144531-1.917969 78.882813-32.675781 3.488281-8.421876 5.011718-17.277344 4.519531-26.320313l-14.976563.808594c.367188 6.785156-.777343 13.4375-3.402343 19.773437-9.574219 23.113282-36.167969 34.128906-59.28125 24.554688zm0 0"/><path d="m253.75 177.609375c-12.742188-5.277344-22.285156-15.90625-26.179688-29.160156l-14.390624 4.226562c5.175781 17.628907 17.871093 31.769531 34.832031 38.792969 30.75 12.738281 66.140625-1.914062 78.878906-32.671875 7.023437-16.960937 6.003906-35.9375-2.800781-52.0625l-13.164063 7.1875c6.617188 12.125 7.386719 26.386719 2.109375 39.132813-9.574218 23.113281-36.167968 34.128906-59.285156 24.554687zm0 0"/><path d="m318.632812 197.160156c-12.769531 30.828125 1.84375 66.113282 32.671876 78.882813 5.503906 2.277343 11.273437 3.730469 17.148437 4.3125l1.484375-14.925781c-4.414062-.4375-8.75-1.53125-12.894531-3.246094-23.167969-9.597656-34.152344-36.109375-24.554688-59.28125 9.574219-23.113282 36.167969-34.132813 59.285157-24.554688 4.140624 1.714844 7.980468 4.007813 11.410156 6.820313l9.507812-11.605469c-4.570312-3.742188-9.675781-6.796875-15.179687-9.074219-30.753907-12.738281-66.140625 1.917969-78.878907 32.671875zm0 0"/><path d="m344.925781 333.925781 3.972657-14.464843c-29.253907-8.035157-60.085938 7.066406-71.710938 35.136718-11.625 28.066406-.507812 60.546875 25.863281 75.550782l7.417969-13.035157c-19.808594-11.273437-28.160156-35.679687-19.421875-56.777343 8.738281-21.09375 31.902344-32.449219 53.878906-26.410157zm0 0"/><path d="m170.277344 263.003906c-12.769532 30.828125 1.84375 66.113282 32.671875 78.882813 30.753906 12.738281 66.140625-1.917969 78.882812-32.675781 12.738281-30.753907-1.917969-66.140626-32.675781-78.878907-30.824219-12.769531-66.109375 1.839844-78.878906 32.671875zm73.140625-18.816406c23.113281 9.574219 34.128906 36.171875 24.554687 59.285156-9.574218 23.113282-36.167968 34.128906-59.28125 24.554688-23.167968-9.597656-34.152344-36.109375-24.554687-59.28125 9.558593-23.078125 36.019531-34.191406 59.28125-24.558594zm0 0"/><path d="m73.898438 181.46875 5.738281 13.855469 404.644531-167.605469-167.609375 404.640625 13.859375 5.742187 181.46875-438.101562zm0 0"/><path d="m278.796875 474.324219c-4.589844-2.179688-9.1875-4.445313-13.65625-6.734375l6.832031-13.351563c4.339844 2.21875 8.800782 4.417969 13.257813 6.535157zm-22.644531-11.445313c-4.449219-2.386718-8.925782-4.875-13.304688-7.398437l7.480469-13c4.253906 2.449219 8.601563 4.867187 12.917969 7.183593zm-22.050782-12.550781c-36.109374-21.765625-69.488281-48.097656-99.207031-78.265625l10.683594-10.527344c28.84375 29.277344 61.230469 54.828125 96.265625 75.945313zm0 0" fill="#fff"/><path d="m226.085938 319.894531c-13.730469 0-25.996094-8.1875-31.246094-20.855469l13.859375-5.742187c2.917969 7.046875 9.742187 11.597656 17.386719 11.597656.371093 0 .746093-.011719 1.117187-.035156l.917969 14.972656c-.679688.042969-1.355469.0625-2.035156.0625zm14.40625-3.242187-6.402344-13.5625c3.25-1.535156 5.976562-3.964844 7.882812-7.019532l12.730469 7.929688c-3.433594 5.507812-8.347656 9.882812-14.210937 12.652344zm18.804687-24.554688-14.757813-2.675781c.199219-1.105469.300782-2.230469.300782-3.347656 0-2.457031-.480469-4.863281-1.429688-7.15625l13.855469-5.738281c1.707031 4.121093 2.574219 8.457031 2.574219 12.894531 0 2.011719-.183594 4.039062-.542969 6.023437zm0 0" fill="#fff"/><path d="m361.480469 251.476562c-17.210938-7.128906-25.414063-26.929687-18.285157-44.140624l13.859376 5.738281c-3.964844 9.570312.597656 20.582031 10.167968 24.546875zm0 0" fill="#fff"/><path d="m271.195312 169.476562c-.019531 0-.039062 0-.0625 0-13.71875 0-25.984374-8.1875-31.230468-20.855468l13.855468-5.742188c2.917969 7.046875 9.746094 11.597656 17.390626 11.597656.375-.011718.75-.007812 1.113281-.03125l.917969 14.972657c-.660157.039062-1.324219.058593-1.984376.058593zm14.355469-3.238281-6.402343-13.566406c3.25-1.535156 5.976562-3.960937 7.882812-7.019531l12.730469 7.929687c-3.429688 5.511719-8.34375 9.886719-14.210938 12.65625zm18.804688-24.558593-14.757813-2.675782c.199219-1.105468.300782-2.230468.300782-3.347656 0-2.457031-.480469-4.863281-1.429688-7.152344l13.859375-5.742187c1.707031 4.121093 2.570313 8.457031 2.570313 12.894531 0 2.011719-.183594 4.039062-.542969 6.023438zm0 0" fill="#fff"/></svg>