<svg xmlns="http://www.w3.org/2000/svg" width="397" height="60" viewBox="0 0 6.7 1.01" shape-rendering="geometricPrecision" text-rendering="geometricPrecision" image-rendering="optimizeQuality" fill-rule="evenodd" clip-rule="evenodd"><defs><style>.fil0,.fil1{fill:#34d399;fill-rule:nonzero}.fil0{fill:#fff}</style></defs><g id="Camada_x0020_1"><g id="_2943138302912"><path class="fil0" d="M0 .32C.04.26.09.2.14.16L.23.1C.26.08.29.06.33.05.37.04.41.02.45.01.49 0 .54 0 .59 0c0 0 .01 0 .02.01h.01l.02.02c.01 0 .02.01.03.02.01 0 .01.02.01.04.01 0 .01.02 0 .04 0 .03 0 .06-.01.1C.67.24.66.24.66.24v.03C.65.29.64.31.63.34.62.37.6.4.58.43a.7.7 0 01-.08.1C.47.56.43.58.39.61.38.61.37.62.36.62.34.63.33.64.31.64.29.65.26.66.23.67.2.68.17.68.14.68.12.7.11.73.1.75.09.78.08.8.08.82.07.84.07.86.07.87c0 .02.01.03.01.04.01 0 .01.01 0 .01v.01H.07c0 .01 0 .01-.01.01 0 .01 0 .01-.01 0V.93C.04.9.03.86.04.82c0-.05.01-.1.03-.16L.04.63C.03.62.02.61.02.59.01.58.01.56.01.55V.5C.01.47.02.43.03.4V.39h.01s0-.01.01-.01v.01C.05.4.06.4.06.4c0 .01 0 .01 0 0h.01v.03C.07.45.06.48.06.49v.05c.01.02.01.03.02.03 0 .01.01.02.01.02C.1.56.12.52.14.48.15.44.17.4.19.36l.05-.1C.26.23.27.21.28.2.29.19.3.18.3.17h.01c.01 0 .01 0 .01.01.01 0 .01 0 .01.01C.32.19.33.2.33.2.34.2.34.2.34.19V.18c.02 0 .03.01.04.01C.39.19.4.2.4.2.41.2.41.21.41.21.41.22.4.23.39.25.37.28.35.3.33.34.31.38.28.42.26.46.23.51.2.55.18.6A.37.37 0 00.29.55C.32.53.35.52.37.5L.42.45C.43.43.45.42.45.41.46.4.46.39.47.39.49.35.51.32.53.28A.31.31 0 00.55.2C.56.18.56.16.56.14V.09.05C.52.06.48.06.44.07.41.08.37.09.34.11.31.12.28.13.25.15S.2.19.17.2C.12.24.08.29.03.34L.01.35C.02.35.02.34.02.34.02.33.01.33.01.33 0 .34 0 .34 0 .33V.32zm.15.22V.53v.01H.14v.01L.15.54zM.16.51V.5h.01V.49.48v.01L.16.5v.01zM.18.47L.17.48S.18.48.18.47V.46.45c.01 0 .01 0 0 0v.02zM.2.43V.42L.21.41C.21.4.21.4.22.39V.38L.23.37V.36v.01H.22v.01s0 .01-.01.01v.02C.2.41.2.41.2.42v.01C.19.43.19.44.19.44v0L.2.43zM.27.37C.26.38.26.38.26.39H.25V.4C.25.41.24.41.24.41v.01H.23v.02H.22v.02C.22.47.21.47.21.47v.01L.2.49V.5h.01S.2.5.2.49h.01H.2h.01V.48S.22.48.22.47V.46S.23.46.23.45s0-.01.01-.01V.42C.25.42.25.42.25.41L.26.4V.39L.27.38V.37zM.26.32C.25.32.25.33.25.33.24.34.24.34.24.35L.23.36.24.34h.01V.33s0-.01.01-.01zM.14.53V.52S.15.52.15.51V.5L.16.49V.48C.16.47.17.47.17.46V.45L.18.44V.43C.19.43.19.42.19.42V.41C.2.41.2.4.2.4V.39L.22.37c0-.01 0-.02.01-.02V.34.33h.01V.32v.01C.23.34.23.34.23.35.22.35.22.36.22.36L.21.37v.01S.2.38.2.39.2.4.19.4v.02H.18v.02S.17.44.17.45s0 .01-.01.02v.01s0 .01-.01.01v.02L.14.52v.01zM.53.36v.01H.52v.01-.01h.01V.36zM.55.34V.33L.56.32H.55v.02H.54v0h.01zM.6.32C.6.33.59.33.59.34s0 .01-.01.01C.58.36.57.37.57.38H.56v.01L.55.4C.56.4.56.4.56.39h.01V.38.37h.01V.36C.59.36.59.35.59.35S.59.34.6.33c0 0 0-.01.01-.01V.3C.62.29.62.29.62.28S.63.26.63.26V.24s0-.01.01-.01V.22.21.19.18.17v.01C.63.19.63.19.63.2v.04L.62.25v.02C.61.27.61.28.61.28V.3H.6v.02zm-.04 0V.31C.57.31.57.3.57.3S.56.3.56.31v.01zM.6.21C.59.21.59.22.59.22L.6.21V.19.18v.03zM.59.24s0 .01-.01.01v.03C.57.28.57.29.57.29v0s0-.01.01-.01V.27.26L.59.25V.24.22v.02zM.56.29C.56.3.55.3.55.3v.01s0 .01-.01.01v.01L.53.34v.01H.52v0h.01V.34C.54.34.54.33.54.33L.55.32V.31C.55.3.56.3.56.29V.28C.57.28.57.27.57.27V.25C.58.25.58.24.58.24V.23.22.21.2C.59.2.59.19.59.19V.2C.58.2.58.2.58.21v.03L.57.25v.02H.56v.02zM.44.03h.03-.01-.02zm-.1.03h.02V.05h.03S.39.04.4.04H.39v.01H.38.37.36L.35.06H.34zM.28.09C.29.09.29.09.29.08H.3c-.01 0 0 0 0 0h.01s0-.01.01-.01h.01-.01C.31.07.31.07.31.08H.29v.01H.28zM.12.21c-.01 0-.01 0 0 0V.2h.01V.19h.01V.18h.01L.16.17.17.16C.18.16.18.15.18.15h.01S.19.14.2.14.21.13.21.13L.22.12h.01s0-.01.01-.01h.01C.25.1.25.1.26.1h.01c0-.01 0-.01 0 0H.25L.24.11C.23.11.23.11.23.12H.22s0 .01-.01.01H.2C.2.14.2.14.19.14c0 .01 0 .01-.01.01 0 0-.01 0-.01.01H.16v.01H.15v.01H.14c0 .01 0 .01-.01.01C.13.2.13.2.12.2v.01zm0 .01H.11v.01C.1.24.09.24.09.24c0 .01 0 .01-.01.02H.07v.01s0-.01.01-.01C.08.25.09.25.1.24L.11.23s0-.01.01-.01L.13.21.14.2C.15.2.15.19.16.18.17.18.18.17.18.16H.2V.15h.01V.14h.02V.13h.01L.25.12.26.11h.01C.28.11.28.1.28.1h.01L.3.09h.02V.08h.01C.34.08.34.08.34.07h.02S.37.07.37.06h.02C.4.06.4.06.4.05h.04L.45.04h.01-.01L.44.05H.41.4v.01H.39.38.37L.36.07H.35.34c0 .01 0 .01-.01.01H.32S.31.08.31.09H.3C.29.1.29.1.28.1c0 0-.01.01-.02.01L.25.12H.24v.01H.23C.22.13.22.13.22.14H.21L.2.15.19.16H.18C.17.17.17.18.16.18.15.19.14.19.14.2.13.2.13.21.13.21.12.21.12.22.12.22zM.11.21L.08.24s0 .01-.01.01v.01S.06.26.06.27C.05.28.04.28.04.29L.07.26C.08.25.09.24.09.23L.1.22h.01V.21z"/><path id="1" class="fil0" d="M.63.81H.62C.61.81.6.81.59.8.58.8.57.79.56.78.56.77.55.75.55.73.55.71.56.69.57.66.58.63.6.59.63.54V.53C.64.53.64.53.64.52L.65.51C.65.5.66.5.66.49.67.47.69.45.7.43.71.41.72.4.72.39h.02C.74.4.74.4.75.4h.01v.01h.01c0 .01.01.01.01.01v.01s0 .01-.01.02L.74.51C.73.53.72.56.71.59.7.62.69.64.68.67.67.69.67.72.66.73c0 .02.01.03.02.04H.7L.73.74C.74.73.75.72.76.7.77.68.78.67.79.65.82.61.84.56.87.5h.01c0 .01.01.01.01.01 0-.01 0-.01 0 0L.9.5C.91.5.91.5.91.51.9.51.9.52.89.53.89.55.88.57.87.6.86.62.84.65.83.67.82.7.8.73.78.75.77.77.75.79.73.81.71.82.7.83.68.82H.64L.63.81zM.71.52V.51h.01V.49h.01V.48L.74.47V.46L.75.45V.44h.01V.43H.75C.75.44.74.44.74.44v.02H.73v.01C.72.47.72.48.72.48V.5H.71v.02zM.63.81H.62V.8H.61h.01v.01h.01zM.59.75H.6V.73H.59v.02zM.6.76v.02-.01-.01zm0-.07V.68h.01V.67.66.65v.03H.6V.69zM.63.61v.01L.62.63v.01c-.01.01 0 0 0-.01L.63.62V.6v.01zM.58.74v.03s.01 0 .01.01v.01L.6.8l.01.01C.6.81.6.8.6.8V.79H.59V.78.77H.58V.73s0-.01.01-.02V.69.68C.6.67.6.66.6.65L.61.64V.63.62C.62.62.62.61.62.61v.01H.61v.02C.6.64.6.65.6.65v.01C.59.67.59.67.59.68V.7H.58v.04zM.77.37H.75L.74.36V.34.32.31C.75.3.75.29.76.28.76.27.77.26.78.25.78.24.79.24.8.23H.86c.01.01.01.01.02.01s.01 0 0 .01C.88.26.87.26.87.27.86.28.85.29.85.3.84.31.83.32.83.33.82.34.82.35.82.35.81.36.81.37.8.38.79.38.78.38.77.37zM.76.33V.32c.01 0 .01 0 0 0v.01h.01-.01zM.77.31v0zM.78.3H.77v.01S.78.31.78.3zM.8.27V.26h0v.01zm0 0H.79v.01C.79.29.78.29.78.29v0h.01V.28L.8.27zM.75.32h.01V.31.3h.01V.29C.77.28.78.28.78.27h.01V.26C.79.25.8.25.8.25H.79v.01L.78.27C.78.28.77.28.77.28v.01L.76.3v.01c0 .01 0 .01-.01.01z"/><path id="2" class="fil0" d="M1.19.42h.01c.01 0 .01.01.01.01v.01c-.01.01-.02.01-.03.01h-.02.02c.01 0 .02 0 .03-.01l-.07.07c-.03.03-.06.05-.09.08S.98.65.95.68C.92.7.9.73.87.75h.06C.95.74.97.74.99.74c0 0 0-.01.01-.01h.06c.01 0 .01 0 .01.01h.01l-.01.01c.01 0 .01 0 0 0v.01c-.01 0-.02 0-.02.01h-.03C1.01.78 1 .78 1 .78H.99C.98.78.96.79.94.79.92.8.89.8.87.8.86.8.85.81.84.81H.81.8.77V.8C.76.8.76.79.76.79V.78.77H.75C.75.76.76.76.76.76H.75h.01C.77.73.79.7.81.67.84.64.86.61.89.58.92.56.95.53.98.51c.03-.02.06-.04.09-.05H.95C.92.45.9.45.87.44H.86C.85.43.85.43.86.42L.85.41V.4L.86.39h.01C.88.39.9.39.92.4h.25c.01 0 .02.01.02.02zm-.24 0h.01L.95.41v.01zM.94.41c0 .01 0 .01 0 0v0zM.9.41h.03H.9zm-.02 0h.01-.01zm.09.02H.95.94C.94.42.93.42.93.42H.91.9.89.88h.03l.01.01h.05zm0-.01zm.1.07c-.01 0-.01 0-.02.01 0 0-.01 0-.01.01h-.01v.01c0-.01.01-.01.01-.01L1.05.5l.01-.01h.01V.48v.01zM.88.64v.01H.87v.01-.01h.01V.64zm-.01 0h.01c0-.01 0-.01.01-.01L.9.62V.61C.91.61.91.6.91.6h.01V.59S.93.59.93.58h.01V.57h.01s0-.01.01-.01V.55h.01C.98.55.98.54.98.54h.01C1 .53 1 .52 1.01.52L1.03.5h.01V.49h.01V.48v.01h-.01L1.03.5c-.01 0-.01.01-.01.01-.01 0-.01 0-.01.01H1L.99.53.98.54C.97.54.97.55.97.55.96.55.96.56.96.56H.95L.93.58c0 .01 0 .01-.01.01L.91.6.9.61.89.62.88.63.87.64zm.15-.12v.01h-.01L1 .54H.99c0 .01 0 .01-.01.01v.01H.97v.01H.96v.01H.95C.96.58.96.58.96.57h.01V.56h.01C.98.55.99.55.99.55L1 .54s.01 0 .01-.01h.01V.52h.01-.01zM.95.58L.94.59.93.6S.94.6.94.59h.01V.58zM.92.61L.91.62.9.63.91.62h.01V.61zM1.1.52V.51h-.01v.01h-.01l-.01.01c0 .01-.01.01-.01.01-.01 0-.01.01-.01.01h-.01v.01c-.01 0-.01 0-.02.01l-.01.01H1C1 .59.99.59.99.59S.99.6.98.6L.97.61s0 .01-.01.01c0 0 0 .01-.01.01 0 0 0 .01-.01.01C.94.65.93.65.93.66H.92v.01H.91v.01H.9v.01H.89.9V.68h.01L.92.67.93.66.94.65.95.64.96.63.97.62C.98.61.99.61.99.6c.02-.01.03-.02.04-.03.01 0 .02-.01.02-.02.01-.01.02-.01.02-.01l.01-.01.01-.01h.01z"/><path id="3" class="fil0" d="M1.56.42h.01l.01.01v.01c-.01.01-.02.01-.03.01h-.03.03c.01 0 .02 0 .03-.01-.02.02-.05.04-.08.07-.03.03-.06.05-.09.08l-.09.09c-.03.02-.06.05-.08.07h.06c.02-.01.04-.01.05-.01.01 0 .01-.01.01-.01H1.42c.01 0 .02 0 .02.01v.02c-.01 0-.02 0-.03.01h-.02c-.01.01-.02.01-.03.01-.02 0-.04.01-.06.01-.02.01-.04.01-.06.01-.01 0-.02.01-.03.01h-.03-.04L1.13.8V.79s0-.01-.01-.01V.77.76l.06-.09c.02-.03.05-.06.08-.09.02-.02.05-.05.08-.07.03-.02.07-.04.1-.05h-.13C1.29.45 1.26.45 1.24.44h-.01C1.22.43 1.22.43 1.22.42V.41.4l.01-.01h.01c.01 0 .03 0 .05.01h.25c.01 0 .02.01.02.02zm-.25 0h.02-.01V.41h-.01v.01zM1.3.41c0 .01 0 .01.01 0v0H1.3zm-.03 0H1.28h-.01zm-.02 0h.01-.01zm.08.02h-.01-.01C1.3.42 1.3.42 1.29.42h-.03-.01.03c0 .01 0 .01.01.01h.05-.01zm.01-.01h-.01.01zm.1.07c-.01 0-.01 0-.02.01-.01 0-.01 0-.01.01H1.4v.01c-.01 0-.01 0 0 0 0-.01 0-.01.01-.01L1.42.5V.49h.02V.48v.01zm-.19.15v.01h-.01v.01h-.01.01V.65h.01V.64zm-.01 0c0-.01.01-.01.01-.01l.01-.01.01-.01.01-.01.01-.01.01-.01c.01 0 .01 0 .01-.01.01 0 .01-.01.01-.01.01 0 .01 0 .01-.01h.01s0-.01.01-.01c.01-.01.02-.02.03-.02 0-.01.01-.01.01-.02h.01l.01-.01.01-.01s0 .01-.01.01S1.4.5 1.39.5c0 0 0 .01-.01.01l-.01.01h-.01c0 .01 0 .01-.01.01 0 .01-.01.01-.01.01s0 .01-.01.01c0 0 0 .01-.01.01h-.01L1.3.58h-.01v.01h-.01V.6c-.01 0-.01.01-.01.01l-.01.01c-.01 0-.01.01-.01.01-.01 0-.01.01-.01.01zm.15-.12s-.01 0-.01.01h-.01s0 .01-.01.01l-.01.01s0 .01-.01.01l-.01.01-.01.01V.57h.01c.01 0 .01 0 .01-.01h.01V.55c.01 0 .01-.01.02-.01l.01-.01h.01V.52zm-.08.06v.01L1.3.6h-.01.01V.59h.01V.58zm-.02.03s-.01 0-.01.01h-.01v.01h-.01.01V.62h.01V.61h.01zm.17-.09c.01 0 .01 0 .01-.01h-.01v.01h-.02c0 .01 0 .01-.01.01 0 .01 0 .01-.01.01 0 0 0 .01-.01.01 0 0-.01 0-.01.01 0 0-.01 0-.01.01-.01 0-.01.01-.01.01h-.01l-.01.01S1.35.6 1.34.6v.01c-.01 0-.01.01-.01.01l-.01.01-.01.01-.02.02-.01.01s-.01 0-.01.01c0 0 0 .01-.01.01.01 0 .01 0 0 0h.01V.68h.01c0-.01 0-.01.01-.01 0-.01.01-.01.01-.01l.01-.01V.64h.01s0-.01.01-.01V.62h.01L1.36.6l.03-.03c.01 0 .02-.01.03-.02.01-.01.01-.01.02-.01 0-.01.01-.01.01-.01V.52h.01z"/><path id="4" class="fil0" d="M1.99.51H2s-.01.01-.02.03c-.01.02-.02.04-.04.07-.02.02-.03.04-.05.06-.01.03-.02.04-.03.05-.01.01-.02.02-.03.02-.01.01-.02.01-.03.01-.01 0-.01-.01-.02-.01 0-.01-.01-.01-.01-.02-.01 0-.01-.01-.02-.02V.68c-.02.02-.03.03-.04.05l-.03.03c-.01.01-.02.02-.03.02-.01.01-.01.02-.02.02h-.02L1.59.78c-.01 0-.01-.01-.02-.02-.01 0-.02-.01-.02-.02-.01-.02-.02-.03-.02-.05.01-.03.01-.07.02-.11.02-.03.04-.07.06-.1.01-.02.03-.03.05-.04.02-.01.03-.02.05-.03.02-.01.03-.01.05-.01.01 0 .03.01.04.02.01.02.02.03.03.04.01.02.01.02.01.03V.5h-.01s0-.01-.01-.01V.48C1.81.47 1.81.46 1.8.46h-.02c-.01.01-.02.02-.03.04-.02.01-.03.03-.04.06-.02.02-.03.05-.04.07-.02.03-.03.06-.03.09h.01c.01 0 .01 0 .01-.01.01 0 .02-.01.03-.02.01-.01.01-.02.02-.03l.02-.02c.01-.01.01-.01.01-.02l.01-.01c0-.01 0-.02.01-.03 0-.01 0-.02.01-.03 0-.01.01-.02.02-.03 0-.01.01-.01.01-.01L1.81.5c.01 0 .01 0 .01.01.01 0 .01.01.01.01h-.01v.01l-.01.01h.01V.53c0-.01 0-.01.01-.01l.01.01h.01s0 .01-.01.01c0 .01 0 .02-.01.02 0 .01 0 .02-.01.03V.61s0-.01.01-.01V.59c0-.01 0-.01.01-.02 0 0 0-.01.01-.02 0-.01 0-.01.01-.02 0-.01.01-.01.01-.01h.01v.03c0 .01 0 .01-.01.01 0 .01 0 .01-.01.03 0 .01-.01.02-.01.03-.01.02-.01.03-.02.04v.02h.01c.01-.01.01-.01.02-.03.01 0 .02-.02.03-.03.01-.02.02-.03.04-.05.01-.02.03-.04.04-.06 0 0 .01 0 .01-.01v.01c0-.01.01-.01.01 0zm-.36.01l-.02.02v.01c0 .01 0 0 0 0V.54c.01 0 .01-.01.01-.01 0-.01.01-.01.01-.01zm-.07.12l.01-.01V.62c0-.01 0-.02.01-.02V.58l.01-.01V.56s0-.01.01-.01V.54s0-.01.01-.01V.52v.01c-.01 0-.01.01-.01.01 0 .01 0 .01-.01.01v.01s0 .01-.01.01v.01c0 .01 0 .01-.01.01v.02s0 .01-.01.01v.04c0 .01-.01.01-.01.02V.69.68l.01-.01V.66.65.64zm0 .07v.02-.02zm.01-.04V.66v.02s-.01 0-.01.01h.01V.68.67zm.01-.03h-.01v0h.01zM1.6.58V.57.56v.01l-.01.01V.6l-.01.01v0h.01V.6.59L1.6.58zm.02.05s0-.01.01-.02V.6c.01-.01.01-.02.01-.02.01-.01.01-.02.01-.02V.55h.01V.54.53v.01h-.01v.01s0 .01-.01.01v.01h-.01V.6c-.01 0-.01 0-.01.01v.01c-.01 0-.01 0-.01.01V.69C1.6.69 1.6.7 1.6.7v.03h.01V.72.71.69.68.66l.01-.01V.63zM1.78.6c0-.02 0-.03.01-.03 0-.02.01-.03.02-.04V.52s.01 0 .01-.01l-.01.01v.01H1.8v.01s0 .01-.01.01v.02c-.01 0-.01 0-.01.01s0 .01-.01.01v.05c0 .01 0 .01-.01.02v.02-.01c0-.01.01-.01.01-.01V.65.64.63.62L1.78.6zm0 .09V.68h-.01l.01.01zm0-.05v.02-.02zm0-.02V.61v.01zm.03-.07L1.8.56v.01l-.01.01V.6c-.01 0-.01.01-.01.01L1.79.6V.59.58h.01V.57.56s.01 0 .01-.01z"/><path id="5" class="fil0" d="M2.13.65c0-.01 0-.01-.01-.01h-.01V.63s.01 0 .01-.01c.01 0 .01-.01.01-.01.02-.02.03-.03.03-.04.01-.02.02-.03.02-.04.01-.01.01-.02.01-.02V.5s-.01 0-.02.02c-.02.01-.03.03-.06.06-.02.02-.04.05-.06.08-.02.03-.04.06-.06.1 0 0-.01.01-.01.02s0 .01-.01.02c0 .01 0 .01-.01.01h-.01c0 .01-.01.01-.01 0h-.02c-.01 0-.01 0-.02-.01-.01 0-.01-.01-.02-.02 0-.01-.01-.03 0-.05 0-.02.01-.05.02-.08s.03-.06.05-.1c0-.01.01-.01.01-.01V.53c.01-.01.01-.01.01-.02.01 0 .01-.01.01-.01.02-.02.03-.04.04-.06.02-.02.02-.04.03-.04h.02c0 .01-.01.02-.01.02 0 .01-.01.01-.01.02l-.01.01c.01 0 .01-.01.01-.02h.01V.42l.01-.01V.4c.01 0 .01.01.01.01h.01v.01s.01 0 .01.01c0 0 0 .01-.01.02 0 .02-.01.03-.02.05-.01.02-.02.05-.03.07-.01.03-.02.05-.03.07l.01-.01c.02-.02.04-.05.07-.08.02-.02.04-.05.07-.07.03-.03.05-.05.08-.07h.01c0-.01.01-.01.01-.01h.02s.01 0 .01.01h.02l.01.01h.01c0 .01.01.01.01.01v.02l-.03.09c-.01.02-.03.04-.04.06l-.03.03-.03.03c-.01 0-.01.01-.02.01s-.02 0-.03.01h-.03V.67.65zm-.2 0v.02c-.01 0-.01 0-.01.01.01 0 .01 0 0 0 .01 0 .01 0 .01-.01V.66.65zm.03-.06V.6h-.01v.02h-.01v.01c0-.01 0-.01.01-.01V.61L1.96.6V.59zm.02-.03c-.01 0-.01 0-.01.01s0 .01-.01.01v.01l.01-.01V.57c.01 0 .01-.01.01-.01zm-.02.01c0-.01.01-.02.02-.04 0-.01.01-.01.01-.02C2 .5 2 .49 2.01.49c0-.01.01-.02.01-.03.01-.01.01-.02.02-.02V.43l.01-.01V.41h.01-.01c-.01.01-.01.02-.01.03-.01 0-.01 0-.01.01-.01 0-.01.01-.01.01s0 .01-.01.01c0 .01 0 .01-.01.02V.5l-.01.01c0 .01-.01.01-.01.01 0 .01 0 .01-.01.02v.01l-.01.01s0 .01-.01.02v.01c-.01.01-.01.01-.01.02-.01 0-.01.01-.01.01 0 .01 0 .01-.01.02v0c.01 0 .01 0 .01-.01V.62c.01 0 .01-.01.01-.02l.01-.01V.58l.01-.01zm.03-.04H2V.52l.01-.01c0-.01.01-.02.01-.02l.01-.01V.47l.01-.01c0-.01 0-.01 0 0-.01 0-.01.01-.01.01s-.01 0-.01.01v.01h-.01v.02H2v.02h-.01v.01s-.01 0-.01.01l.01-.01V.53zm.22.04zm.01-.01V.55v.01h-.01.01zm.01-.01h-.01.01zm.02.04h-.01V.6h-.01v.01V.6h.01-.01.01l.01-.01V.58h.01V.57l.01-.01V.55h.01V.53.52s.01 0 0 0V.51h.01-.01v.02h-.01v.02h-.01v.02l-.01.01v.01zM2.24.51v0s.01 0 0 0h.01V.5c-.01 0-.01.01-.01.01zm0 .02h-.01v.01l.01-.01V.52v.01zM2.2.56h.01V.55l.01-.01c0-.01 0-.01.01-.02V.5v.02h-.01v.02c-.01 0-.01 0-.01.01v.01H2.2z"/><path id="6" class="fil0" d="M2.37.81h-.01c-.01 0-.02 0-.03-.01-.01 0-.02-.01-.03-.02 0-.01-.01-.03-.01-.05 0-.02.01-.04.02-.07.01-.03.03-.07.06-.12V.53c.01 0 .01 0 .01-.01l.01-.01c0-.01.01-.01.01-.02.01-.02.03-.04.04-.06.01-.02.02-.03.02-.04h.02c0 .01 0 .01.01.01h.01v.01h.01c0 .01 0 .01.01.01v.01s0 .01-.01.02l-.03.06c-.01.02-.02.05-.03.08-.01.03-.02.05-.03.08-.01.02-.01.05-.02.06 0 .02.01.03.02.04h.02l.03-.03c.01-.01.02-.02.03-.04.01-.02.02-.03.03-.05.03-.04.05-.09.08-.15h.01c0 .01.01.01.01.01 0-.01 0-.01 0 0L2.64.5c.01 0 .01 0 .01.01-.01 0-.01.01-.02.02 0 .02-.01.04-.02.07-.01.02-.03.05-.04.07-.02.03-.03.06-.05.08-.01.02-.03.04-.05.06-.02.01-.03.02-.05.01h-.04L2.37.81zm.08-.29V.51h.01V.49h.01V.48l.01-.01V.46s0-.01.01-.01V.44h.01V.43h-.01c0 .01-.01.01-.01.01v.02h-.01v.01h-.01V.5h-.01v.02zm-.09.29V.8h-.01.01v.01h.01-.01zM2.33.75V.73v.02zm0 .01s.01 0 .01.01v.01-.01-.01h-.01zm.01-.07V.68h.01V.67.66.65v.02s-.01 0-.01.01v.04h-.01v.01c0-.01.01-.01.01-.01V.71.7.69zm.03-.08s0 .01-.01.01v.02c-.01.01 0 0 0-.01V.62h.01V.6v.01zm-.05.13v.03s.01 0 .01.01v.01l.01.01.01.01C2.34.81 2.34.8 2.34.8c0-.01 0-.01-.01-.01V.78.77h-.01V.73s0-.01.01-.02V.69.68c.01-.01.01-.02.01-.03l.01-.01V.63.62c.01 0 .01-.01.01-.01s-.01 0-.01.01v.02c-.01 0-.01.01-.01.01v.01c-.01.01-.01.01-.01.02V.7h-.01v.04zm.19-.37h-.02L2.48.36V.34.32.31c.01-.01.01-.02.02-.03 0-.01.01-.02.02-.03 0-.01.01-.01.02-.02H2.6c.01.01.01.01.02.01s.01 0 0 .01c0 .01-.01.01-.01.02-.01.01-.02.02-.02.03-.01.01-.02.02-.02.03-.01.01-.01.02-.01.02-.01.01-.01.02-.02.03-.01 0-.02 0-.03-.01zM2.5.33V.32c.01 0 .01 0 0 0v.01h.01-.01zm.01-.02v0zM2.52.3h-.01v.01s.01 0 .01-.01zm.02-.03V.26h0v.01zm0 0h-.01v.01c0 .01-.01.01-.01.01v0h.01V.28.27h.01c-.01 0 0 0 0 0zm-.05.05h.01V.31.3h.01V.29c0-.01.01-.01.01-.02h.01V.26.25h.01-.01v.01l-.01.01c0 .01-.01.01-.01.01v.01L2.5.3v.01c0 .01 0 .01-.01.01z"/><path id="7" class="fil0" d="M3 .51h.01S3 .52 2.99.54c-.01.02-.03.04-.04.07-.02.02-.03.04-.05.06-.01.03-.03.04-.03.05-.02.01-.03.02-.04.02-.01.01-.02.01-.02.01-.01 0-.01-.01-.02-.01L2.77.72S2.76.71 2.76.7 2.75.69 2.75.68c-.01.02-.02.03-.03.05l-.03.03c-.02.01-.02.02-.03.02L2.64.8h-.02L2.6.78c-.01 0-.02-.01-.02-.02-.01 0-.02-.01-.03-.02-.01-.02-.01-.03-.01-.05 0-.03.01-.07.02-.11.01-.03.03-.07.06-.1.01-.02.03-.03.05-.04.01-.01.03-.02.05-.03.02-.01.03-.01.05-.01.01 0 .02.01.03.02l.04.04c.01.02.01.02.01.03V.5h-.01L2.83.49 2.82.48c0-.01-.01-.02-.01-.02h-.03c0 .01-.01.02-.03.04-.01.01-.02.03-.04.06-.01.02-.02.05-.04.07-.01.03-.02.06-.02.09h.01s.01 0 .01-.01c.01 0 .02-.01.02-.02l.03-.03.02-.02c0-.01.01-.01.01-.02V.61c.01-.01.01-.02.01-.03.01-.01.01-.02.02-.03 0-.01.01-.02.02-.03 0-.01.01-.01.01-.01 0-.01.01-.01.01-.01s.01 0 .01.01c0 0 0 .01.01.01h-.01v.01h-.01v.01c.01 0 .01-.01.01-.01V.52h.01v.01h.02l-.01.01c0 .01-.01.02-.01.02 0 .01-.01.02-.01.03 0 .01-.01.01-.01.02v.01s.01 0 .01-.01V.6c0-.01.01-.01.01-.01V.57c.01 0 .01-.01.01-.02l.02-.02c0-.01 0-.01.01-.01h.01v.03l-.01.01c0 .01 0 .01-.01.03 0 .01-.01.02-.01.03-.01.02-.02.03-.02.04v.02h.01c0-.01.01-.01.02-.03.01 0 .01-.02.03-.03.01-.02.02-.03.03-.05.02-.02.03-.04.05-.06V.5h.01v.01c0-.01 0-.01 0 0H3zm-.37.01c0 .01-.01.02-.01.02v.01h-.01c0 .01 0 0 0 0 .01 0 .01 0 .01-.01 0 0 0-.01.01-.01V.52h.01-.01zm-.06.12V.63l.01-.01V.6c0-.01.01-.01.01-.02V.57c.01 0 .01-.01.01-.01V.55s.01 0 .01-.01V.53c.01 0 .01-.01.01-.01l-.01.01s0 .01-.01.01v.02c-.01 0-.01.01-.01.01v.01l-.01.01v.02c-.01 0-.01.01-.01.01v.03l-.01.01v.03-.01-.01c0-.01.01-.01.01-.01V.65.64zm0 .07v.02-.02zm.01-.04V.66l-.01.01v.02-.01l.01-.01zm0-.03v0zM2.6.58s.01 0 .01-.01V.56v.01H2.6v.02L2.59.6v.02l-.01.01h.01V.62.61C2.59.6 2.6.6 2.6.6V.59.58zm.03.05V.61c.01 0 .01-.01.01-.01 0-.01.01-.02.01-.02 0-.01.01-.02.01-.02V.55.54h.01V.53l-.01.01v.01l-.01.01v.01h-.01v.01c0 .01 0 .01-.01.02v.01l-.01.01v.04s-.01 0-.01.01V.73h.01-.01V.72.71c0-.01.01-.01.01-.01V.69.68.66.65c.01-.01.01-.01.01-.02zM2.78.6c.01-.02.01-.03.02-.03 0-.02.01-.03.01-.04h.01V.52.51h.01-.01v.02h-.01v.01c-.01 0-.01.01-.01.01v.01s-.01 0-.01.01v.01c0 .01-.01.01-.01.01v.04c0 .01-.01.01-.01.01v.04-.01-.02c0-.01.01-.01.01-.01V.63.6zm0 .09V.68h0v.01zm.01-.05h-.01v.02-.01h.01V.64zm0-.02V.61v.01zm.03-.07h-.01v.02H2.8V.6h-.01v0h.01V.59.58l.01-.01V.56.55h.01z"/><path class="fil1" d="M3.6.01h.05C3.69 0 3.73 0 3.77 0h.11c.01.01.03.01.05.01.02 0 .04 0 .06.01.02 0 .04 0 .06.01h.01c.01 0 .03.01.04.02.02 0 .03.01.05.02.01.01.02.02.03.04.01.02.02.03.01.05v.03c0 .01-.01.02-.02.02 0 .01-.01.02-.02.02h-.01V.22.21.19c.01-.01 0-.01 0-.02S4.13.16 4.12.15h-.01a.185.185 0 00-.07-.02C4.01.12 3.99.12 3.97.12A.875.875 0 003.81.1c-.06 0-.12 0-.17.01-.02.03-.05.07-.07.12-.03.05-.05.1-.08.15-.03.06-.06.11-.08.16-.03.05-.05.1-.06.15-.02.04-.03.08-.04.11 0 .03 0 .05.02.06v.02s-.01 0-.01.01c-.01 0-.01.01-.01.01H3.3c0-.01-.01-.01-.01-.01-.01-.03-.02-.05-.03-.08V.72c0-.03.01-.07.02-.12.02-.05.04-.1.07-.17V.42.33c0-.03-.01-.06-.02-.08a.161.161 0 00-.07-.04C3.24.2 3.2.2 3.15.21L3.13.16c.03-.01.06-.03.1-.04.03-.02.07-.03.12-.05.04-.01.1-.03.16-.04h.03c.01-.01.02-.01.03-.01h.02c.01 0 .01 0 .01-.01zm-.17.06h.01c.01 0 .03-.01.05-.01.01 0 .03-.01.04-.01h.02s0-.01.01-.01h-.01s-.02.01-.03.01H3.5c0 .01-.01.01-.01.01h-.02c-.01 0-.01.01-.02.01h-.02zm-.03.3v.01c-.01 0-.01.01-.01.02 0 0-.01.01-.01.02l-.01.02c0 .01 0 .01-.01.01v.01c0 .01 0 .01-.01.02V.5h-.01c.01 0 .01-.01.01-.01 0-.01 0-.01.01-.02V.46c0-.01 0-.01.01-.01V.44.43c.01-.01.01-.01.01-.02.01 0 .01-.01.01-.02L3.4.38V.37c.01-.01.01-.01.01-.02l.01-.01V.32h.01V.31c0-.01.01-.01.01-.02V.28l.01-.02c.01 0 .01-.01.01-.01V.24c.01 0 .01-.01.01-.02.01 0 .01 0 .01-.01L3.49.2V.19c0-.01 0-.01.01-.01V.17v.01h-.01v.01c0 .01-.01.01-.01.01v.01c-.01.01-.01.01-.01.02s-.01.01-.01.01c0 .01 0 .01-.01.02v.01l-.01.01c0 .01 0 .02-.01.02 0 0 0 .01-.01.02v.01s-.01.01-.01.02-.01.01-.01.02zm.11-.19C3.5.19 3.5.19 3.5.2c0 0-.01 0-.01.01v.01l-.01.01.01-.01s0-.01.01-.02V.19h.01V.18c0-.01 0-.01.01-.01V.16l-.01.01v.01zm-.03.05v.01h-.01v.02c-.01 0-.01.01-.01.01v.01h-.01V.3h-.01v.02l-.01.01c0 .01 0 .01-.01.02v0c.01 0 .01-.01.01-.01V.33c.01 0 .01-.01.01-.01 0-.01 0-.01.01-.02 0-.01.01-.02.01-.02V.27l.01-.01V.25l.01-.01V.23zm-.11.23c.01 0 .01-.01.01-.01V.44l.01-.01V.42c0-.01 0-.01 0 0s0 .01-.01.02v.01l-.01.01zM3.4.41V.4.39c.01 0 .01 0 .01-.01V.37v.02H3.4v.02zM3.35.5h.01V.49.5c-.01 0-.01.01-.01.01V.5zm.21-.33V.16h-.01v.01c-.01.01-.01.02-.01.03-.01 0-.01.01-.01.01v.01c-.01 0-.01 0-.01.01 0 0-.01.01-.01.02-.01.01-.01.01-.01.02v.01c-.01 0-.01.01-.01.01 0 .01-.01.02-.01.02 0 .01-.01.01-.01.02s-.01.01-.01.02c0 0 0 .01-.01.02v.01l-.01.01V.4c0 .01-.01.01-.01.02s-.01.02-.01.03l-.01.01v.01C3.4.48 3.4.49 3.4.5l-.01.01c0 .01-.01.02-.01.02v.01c.01-.01.01-.01.01-.02 0 0 0-.01.01-.01 0-.01.01-.02.01-.02V.47c.01-.01.01-.02.02-.03 0-.01 0-.02.01-.03V.4h.01V.39c0-.01.01-.01.01-.02 0 0 0-.01.01-.01 0-.01 0-.02.01-.02V.33.32l.01-.01c0-.01.01-.01.01-.02s.01-.01.01-.02.01-.02.01-.03l.01-.01V.22c0-.01.01-.01.01-.01V.2c.01-.01.01-.01.01-.02V.17h.01zM3.4.3c.02-.03.04-.07.05-.1.02-.03.03-.05.05-.08-.02.01-.05.01-.07.02-.02 0-.04.01-.06.01-.01 0-.01 0-.02.01h-.01s.01 0 .01.01c.01.01.02.01.02.03.01.01.02.02.02.04.01.02.01.04.01.06zM4 .05h.03s.01 0 .01.01h.02-.02V.05h-.02H4zM3.88.03H3.94c.01 0 .01.01.01.01h.01c-.01 0-.01 0-.01-.01h-.01-.02-.01-.01-.01-.01zM3.81.02h.05c0 .01 0 .01.01.01V.02h-.03-.02-.01zm.03.01h-.02-.02-.01-.06-.04s0 .01-.01.01h-.01-.04c-.02 0-.03.01-.04.01h-.02-.01l-.01.01h-.03c-.01 0-.01 0-.02.01h-.02-.01.02c.01 0 .02-.01.03-.01h.04c0-.01.01-.01.01-.01h.03s.01 0 .03-.01h.08s.01 0 .01-.01H3.86c0 .01 0 .01.01.01h.07c.01.01.01.01.02.01h.03c.01.01.02.01.02.01h0C4 .06 4 .06 4 .05h-.03-.02c0-.01-.01-.01-.01-.01h-.06c-.01 0-.01-.01-.02-.01h-.02zm-.18 0h-.02-.01-.01c-.01 0-.02 0-.02.01h-.01-.01-.01.03s0-.01.01-.01h.09l.01-.01h.06-.07-.01c-.01 0-.01 0-.02.01h-.01z"/><path id="1" class="fil1" d="M3.68.43c0 .01 0 .01-.01.01 0 0-.01.01-.01.02-.01.01-.03.03-.04.05-.01.02-.02.04-.03.07-.01.02-.02.05-.02.08v.05c0 .02 0 .03.01.04h.02c.01-.01.03-.02.04-.03L3.7.66 3.67.63C3.66.61 3.66.59 3.66.57c.01-.02.01-.04.02-.05.01-.02.02-.03.04-.03.01-.01.03-.01.04-.01.01 0 .02.01.02.02.01 0 .01.01.01.02v.04c-.01 0-.01.01-.01.01v.01-.01c0 .01 0 .02-.01.03 0 .01 0 .01-.01.02.02 0 .04-.02.07-.04a.3.3 0 00.09-.1s.01 0 .01-.01c.01 0 .01 0 .01.01l.01-.01c0 .01.01.01.01.01-.01.02-.03.05-.05.07-.01.03-.03.04-.05.06-.02.02-.04.03-.06.04-.02.01-.04.01-.06.02-.01.02-.03.04-.04.06-.02.01-.04.03-.07.04-.03.01-.06.02-.08.01C3.52.77 3.51.76 3.5.75a.09.09 0 01-.03-.07h-.01V.6c0-.03.01-.06.03-.09a.21.21 0 01.04-.06c.01-.02.03-.04.04-.05.02-.01.03-.02.05-.03a.03.03 0 01.04 0h.03c.02.01.03.02.04.03.01.01.01.01.01.02v.01s-.01 0-.01.01h-.02C3.7.43 3.69.43 3.68.43zm.03.15V.6c0 .01.01.02.01.02 0-.01.01-.01.01-.02s.01-.02.01-.03l.01-.01V.54.52.51c-.01 0-.02 0-.03.01 0 .02-.01.03-.01.06zM3.57.45c0 .01-.01.01-.01.01 0 .01-.01.01-.01.01v.01l.01-.01V.46c.01 0 .01-.01.01-.01zM3.5.59V.6h-.01.01V.59zm0-.03V.55.54c.01-.01.01-.01.01-.02.01-.01.01-.02.02-.02 0-.01 0-.02.01-.02V.47c.01 0 .01-.01.01-.01V.45v.01l-.01.01c0 .01-.01.01-.01.01v.01h-.01v.02h-.01v.02H3.5v.02c-.01 0-.01.01-.01.01V.56h.01zm.01-.01v.01H3.5v.01h.01V.56.55zm.01-.02v.01h-.01v.01s0-.01.01-.01V.53zm0-.01h.01V.51c0-.01.01-.01.01-.01V.49h.01V.48l-.01.01V.5h-.01v.02h-.01v0zM3.6.48V.47v.01h-.01v.01s-.01 0-.01.01c-.01 0-.01.01-.01.01v.01h-.01v.01s0 .01-.01.01v.03h-.01V.6h-.01v.01h.01V.6.59.58h.01V.57.56h.01V.54l.01-.01V.52c.01 0 .01-.01.01-.01.01-.01.01-.01.01-.02 0 0 .01 0 .01-.01z"/><path id="2" class="fil1" d="M4.02.54c-.01.04-.03.07-.04.11-.02.04-.03.07-.05.11l-.03.1c-.01.04-.02.07-.03.1v.01c0 .01.01.01.01.02v.02h-.02C3.86 1 3.85 1 3.85 1L3.84.99h-.01V.98.97.95.93c0-.01 0 0 0 0v.04h-.01v.01H3.8V.97c0-.04 0-.08.01-.12 0-.03.01-.07.02-.1 0-.03.01-.06.02-.09.01-.02.01-.04.02-.06-.01 0-.01 0-.01.01h-.02V.6.59l.01-.01V.57l.01-.01.01-.01c.01-.01.01-.01.02-.01 0-.01 0-.01.01-.01.03-.07.06-.12.09-.17.03-.05.05-.09.08-.12.03-.04.05-.07.08-.09h.01c0-.01.01-.01.01-.01h.01c.01 0 .01.01.01.01.01 0 .01 0 .02.01l.01.01c.01.01.01.02.01.03 0 .02 0 .03-.01.05 0 .02-.01.04-.02.06l-.03.06c-.01.03-.02.04-.04.06h-.02V.42H4.1s.01-.01.02-.03c0-.01.01-.03.02-.05.02-.02.02-.05.03-.07.01-.03.02-.05.02-.07l-.05.08c-.01.03-.02.06-.04.09-.02.04-.04.08-.05.12.03-.01.06-.01.1-.02h.11v.02c0-.01 0 0 0 0L4.25.5h-.01c-.04.01-.07.01-.11.02a.36.36 0 00-.11.02zM4 .4V.39.4l-.01.01v.01l-.01.01v.01c-.01 0-.01 0-.01.01v.01s-.01 0-.01.01v.01l-.01.01V.5l-.01.01v.01c0 .01-.01.01-.01.01v.02h-.01v.02c0 .01-.01.01-.01.02s0 .01-.01.02v.02l-.01.01v.01c0 .01 0 .01 0 0 0 0 0-.01.01-.02V.62s0-.01.01-.02V.59c0-.01 0-.01.01-.01V.57c0-.01.01-.01.01-.02s0-.02.01-.02V.52.51h.01V.5.49h.01V.48.47h.01V.45s.01 0 .01-.01 0-.01.01-.01V.42.41L4 .4zm.09-.14s-.01.01-.01.02c-.01 0-.01.01-.01.01L4.06.3c-.01.01-.02.02-.02.03-.01.01-.01.01-.01.02l-.01.01c0 .01-.01.01-.01.01v.01s0 .01 0 0c0 0 0-.01.01-.01V.36l.01-.01s0-.01.01-.01c0-.01.01-.02.01-.02V.31h.01c0-.01 0-.01.01-.02 0-.01.01-.01.01-.02l.01-.01V.25v.01zm-.23.51h-.01v.04h-.01V.83l.01-.01V.8.79c0-.01.01-.01.01-.01V.77zm0-.06c0-.01.01-.03.01-.04.01-.02.02-.04.02-.06L3.9.6V.59.58l.01-.01V.56c0-.01 0-.01.01-.01V.54.53l.01-.01V.51s0-.01.01-.01c.01-.03.03-.06.04-.08.01-.03.02-.05.03-.06.01-.01.01-.02.02-.03 0 0 0-.01.01-.02V.3h.01V.29l.01-.01-.01.01V.3h-.01c0 .01-.01.03-.02.04 0 .01-.01.02-.01.02C4 .37 4 .37 4 .38h-.01v.01s-.01.01-.01.02 0 .01-.01.01v.01l-.01.02c-.01.01-.01.02-.01.03-.01 0-.01.01-.01.02h-.01v.02c-.01 0-.01.01-.01.01 0 .01 0 .01-.01.02v.02c-.01 0-.01.01-.01.01 0 .01 0 .01-.01.02v.02l-.01.01v.02c-.01 0-.01.01-.01.01v.02l-.01.01v.03c-.01 0-.01 0-.01.01v.03c-.01 0-.01.01-.01.01v.04h-.01v.06h-.01v.08h-.01c.01 0 .01 0 0 0 .01 0 .01-.01.01-.01V.93.92.9.89.88s.01 0 .01-.01V.86.85.83s0-.01.01-.02V.8.79c0-.01 0-.02.01-.03V.75.74.73h.01V.71zm.01.02V.72c0-.01 0-.01.01-.02V.68.67v.02s-.01 0-.01.01v.02s0 .01-.01.01v.02s0-.01.01-.02zm0 .13V.85l.01-.01V.83.81h.01V.8.78c0-.01.01-.01.01-.02s0-.01.01-.02V.71L3.92.7V.69.68h.01V.66l.01-.01V.64.63c0-.01.01-.01.01-.02V.6l.01-.01V.58.57h0V.56v.01c-.01.02-.01.03-.01.03-.01.01-.01.01-.01.02 0 0-.01 0-.01.01v.02l-.01.01v.02c-.01 0-.01.01-.01.01v.02s-.01 0-.01.01v.03s-.01.01-.01.02v.01c0 .01 0 .02-.01.02v.02c0 .01-.01.01-.01.02v.02z"/><path id="3" class="fil1" d="M4.32.54c-.02.04-.03.07-.05.11-.01.04-.02.07-.04.11l-.03.1c-.01.04-.02.07-.03.1v.01c0 .01 0 .01.01.02V1c0 .01 0 .01-.01.01h-.01C4.16 1 4.15 1 4.15 1L4.14.99h-.01V.98h-.01V.97c0-.01 0-.01.01-.01V.95.93c0-.01 0 0 0 0v.01c-.01 0-.01.01-.01.01V.97s0 .01-.01.01H4.1L4.09.97c.01-.04.01-.08.02-.12 0-.03.01-.07.01-.1l.03-.09c0-.02.01-.04.02-.06-.01 0-.01 0-.02.01h-.01V.6.59c0-.01.01-.01.01-.01V.57s0-.01.01-.01c0 0 0-.01.01-.01 0-.01.01-.01.01-.01.01-.01.01-.01.02-.01.03-.07.06-.12.09-.17.03-.05.05-.09.08-.12.02-.04.05-.07.08-.09h.01c0-.01.01-.01.01-.01h.01l.01.01c.01 0 .01 0 .02.01l.01.01c0 .01.01.02.01.03 0 .02-.01.03-.01.05-.01.02-.01.04-.02.06l-.03.06c-.01.03-.02.04-.04.06h-.01-.01c0-.01 0-.01-.01-.01 0 0 0-.01.01-.03.01-.01.02-.03.03-.05.01-.02.02-.05.03-.07.01-.03.01-.05.01-.07l-.04.08c-.01.03-.03.06-.04.09l-.06.12c.04-.01.07-.01.11-.02h.11v.01c0 .01-.01.01-.01.01 0-.01 0 0 0 0V.5h-.01c-.04.01-.08.01-.11.02a.36.36 0 00-.11.02zM4.3.4V.39.4h-.01v.02c-.01 0-.01.01-.01.01 0 .01 0 .01-.01.01v.02c-.01 0-.01 0-.01.01s0 .01-.01.01V.5s-.01 0-.01.01v.01h-.01v.02s0 .01-.01.01v.02c-.01.01-.01.01-.01.02S4.2.6 4.2.61v.01c0 .01-.01.01-.01.01v.02c0 .01 0 .01 0 0V.63L4.2.62V.6c.01 0 .01-.01.01-.01V.58l.01-.01c0-.01 0-.01.01-.02 0-.01 0-.02.01-.02V.52.51s.01 0 .01-.01V.49h.01V.48.47l.01-.02.01-.01V.43l.01-.01V.41L4.3.4zm.09-.14c-.01 0-.01.01-.02.02 0 0 0 .01-.01.01 0 .01 0 .01-.01.01 0 .01-.01.02-.01.03l-.02.02v.01l-.01.01v.01s0 .01 0 0V.37c.01 0 .01 0 .01-.01l.01-.01V.34c.01-.01.01-.02.02-.02V.31h.01c0-.01 0-.01.01-.02 0-.01.01-.01.01-.02l.01-.01V.25v.01zm-.24.51h.01-.01V.8l-.01.01v.05s0 .01-.01.01h.01V.86.85.84.83.82c.01-.01.01-.01.01-.02V.79.78.77zm.01-.06c0-.01.01-.03.01-.04.01-.02.01-.04.02-.06V.6L4.2.59V.58s0-.01.01-.01V.56.55c.01 0 .01-.01.01-.01V.53.52c.01 0 .01 0 .01-.01V.5h.01c.01-.03.02-.06.04-.08.01-.03.02-.05.03-.06.01-.01.01-.02.01-.03.01 0 .01-.01.02-.02V.3h.01V.29.28h.01-.01v.01L4.34.3c-.01.01-.01.03-.02.04-.01.01-.01.02-.02.02v.02h-.01v.01s-.01.01-.01.02l-.01.01v.01h-.01l-.01.02c0 .01 0 .02-.01.03 0 0 0 .01-.01.02v.01l-.01.01v.01c0 .01-.01.01-.01.02v.02c-.01 0-.01.01-.01.01 0 .01-.01.01-.01.02v.02h-.01v.02c0 .01-.01.01-.01.01v.03c-.01 0-.01.01-.01.01v.02s0 .01-.01.01v.03l-.01.01V.8h-.01v.04c0 .01-.01.02-.01.03v.05c-.01.01-.01.02-.01.02v0c.01 0 .01-.01.01-.01V.92.9.89.88.87.86l.01-.01V.83.81L4.14.8V.79.76c.01 0 .01 0 .01-.01V.74.73c.01-.01.01-.02.01-.02zm0 .02l.01-.01V.7c.01-.01.01-.01.01-.02V.67v.01l-.01.01v.03l-.01.01v0zm.01.13V.85.84s.01 0 .01-.01V.81.8h.01V.78c0-.01.01-.01.01-.02V.74c.01-.01.01-.02.01-.03 0 0 0-.01.01-.01V.69.68l.01-.02.01-.01V.64.63c0-.01 0-.01.01-.02V.6.59s0-.01.01-.01V.57.56v.01h-.01c0 .02 0 .03-.01.03v.02s-.01 0-.01.01v.01c0 .01-.01.01-.01.01v.02s0 .01-.01.01v.03c-.01 0-.01 0-.01.01v.02l-.01.01v.03c0 .01-.01.02-.01.02v.02c-.01.01-.01.01-.01.02v.02z"/><path id="4" class="fil1" d="M4.92.48h.01s-.01.01-.02.03c-.01.02-.03.04-.04.06-.02.03-.04.05-.05.07-.02.02-.03.04-.03.05-.02.01-.03.02-.04.02-.01.01-.02.01-.03 0h-.01L4.69.69c0-.01-.01-.01-.01-.02-.01-.01-.01-.02-.01-.02-.01.01-.02.03-.04.04-.01.02-.02.03-.03.04-.01.01-.01.02-.02.02-.01.01-.02.01-.02.02h-.02L4.52.75C4.51.74 4.5.74 4.5.73c-.01 0-.02-.01-.03-.03-.01-.01-.01-.02-.01-.04 0-.03.01-.07.02-.11.01-.04.03-.07.06-.1.01-.02.03-.03.04-.05.02-.01.04-.02.06-.02.02-.01.03-.01.05-.01.01 0 .02.01.03.02l.04.04c.01.01.01.02.01.03v.01h-.01c0-.01-.01-.01-.01-.01L4.74.45c0-.01-.01-.02-.01-.02-.01-.01-.02 0-.03 0 0 .01-.01.02-.03.03a.21.21 0 01-.04.06c-.01.03-.03.05-.04.08-.01.03-.02.06-.02.09h.01s.01 0 .01-.01c.01 0 .02-.01.02-.02l.03-.03c0-.01.01-.02.02-.02 0-.01.01-.02.01-.02V.58c.01-.01.01-.02.01-.03.01-.01.01-.02.02-.03 0-.01.01-.02.02-.03 0-.01.01-.01.01-.02h.02c0 .01 0 .01.01.02h-.01V.5h-.01v0h.01V.49h.01c0 .01.01.01.01.01.01-.01.01 0 .01 0l-.01.01c0 .01-.01.01-.01.02s-.01.02-.01.03c0 0-.01.01-.01.02v.01l.01-.01V.57c0-.01.01-.01.01-.01V.54c.01-.01.01-.01.01-.02.01-.01.01-.02.01-.02.01-.01.01-.01.02-.01 0-.01.01-.01.01 0V.5c0 .01-.01.01-.01.02v.01s0 .01-.01.02c0 .01-.01.03-.02.04 0 .01-.01.03-.01.04v.02h.01c0-.01.01-.02.02-.03 0-.01.01-.02.03-.03.01-.02.02-.04.03-.05.02-.02.03-.04.05-.06V.47h.01c0 .01 0 .01 0 0v.01c.01-.01.01-.01.01 0zm-.37.01c0 .01-.01.01-.01.02s-.01.01-.01.01l.01-.01V.5h.01V.48v.01zm-.06.12V.6c0-.01 0-.01.01-.02V.57c0-.01.01-.01.01-.02V.54l.01-.01V.52c0-.01 0-.01.01-.01V.5l.01-.01h-.01c0 .01 0 .02-.01.02v.02c-.01 0-.01 0-.01.01v.01L4.5.56v.02c-.01 0-.01.01-.01.01v.03h-.01v.05-.02-.01-.01c0-.01.01-.01.01-.01V.61zm0 .07V.67v.02-.01zM4.5.64V.63c-.01 0-.01 0-.01.01v.01-.01h.01zm0-.04v.02c0 .01 0 0 0 0V.61.6zm.02-.05V.54c.01 0 .01 0 .01-.01 0 .01 0 .01-.01.01v.02h-.01v.03C4.5.59 4.5.6 4.5.6l.01-.01V.58.57l.01-.01V.55zm.03.05V.58c.01 0 .01-.01.01-.01 0-.01.01-.02.01-.03l.01-.01V.52.51h.01V.5h-.01v.02h-.01v.01l-.01.01v.01c0 .01-.01.01-.01.02s0 .01-.01.01V.6c0 .01-.01.01-.01.01V.67.66c.01-.01.01-.01.01-.02V.63.62c0-.01.01-.01.01-.02zM4.7.56c.01-.01.01-.02.01-.03.01-.01.02-.02.02-.03V.49h.01V.48v.01h-.01v.02h-.01v.01l-.01.01v.02c-.01 0-.01.01-.01.01v.03L4.69.6v.05-.02-.02V.6h.01V.56zm0 .09V.64v.02-.01zm.01-.04V.6C4.7.6 4.7.6 4.7.61v.02-.01h.01V.61zm0-.03v0zm.03-.07h-.01v.02l-.01.01v.02s-.01 0-.01.01v0s.01 0 0 0h.01V.55l.01-.02V.52s.01 0 0 0h.01V.51z"/><path id="5" class="fil1" d="M5.14.79H5.1c0-.01-.01-.01-.01-.01h-.01-.01V.77h-.01V.76h-.01c0-.01-.01-.02-.01-.02V.72.71.7.69.68.65c.01 0 .01-.01.01-.02s.01-.02.01-.03c.01-.01.01-.01.01-.02.01 0 .01-.01.01-.01V.56h.01V.55v.01h-.01v.01l-.01.01v.01L5.06.6l-.01.02v.01c0 .01 0 .01-.01.02v.03l-.01.01V.7c0 .01.01.01.01.01v.03l.01.01v.01c.01.01.01.01.02.01v.01h.01-.03L5.03.76C5.02.75 5.02.74 5.01.73c0-.02 0-.04.01-.06 0-.03.01-.06.03-.09.02-.03.04-.07.07-.12-.03.02-.05.05-.07.08-.03.02-.05.05-.07.08-.02.03-.04.07-.06.1 0 .01-.01.01-.01.02S4.9.76 4.9.76c0 .01 0 .02-.01.02 0-.01 0 0-.01 0h-.01c-.01 0-.01-.01-.02-.01h-.02C4.82.76 4.81.75 4.81.74 4.8.73 4.8.71 4.81.69c0-.02 0-.04.02-.07.01-.03.03-.07.05-.11L4.89.5V.49L4.9.48c0-.01.01-.01.01-.02.01-.02.03-.04.04-.06.01-.02.02-.03.02-.04h.01s.01 0 .01.01H5c0 .01-.01.02-.02.03v.01l.01-.02L5 .38c-.01 0 0 0 0 0V.37h.01v.01h.01l.01.01V.4l-.01.02c-.01.01-.02.03-.03.06-.01.02-.02.04-.03.07-.01.03-.02.06-.03.08L4.95.6l.06-.09c.02-.02.05-.05.08-.07.02-.03.05-.05.08-.06 0-.01 0-.01.01-.01 0-.01 0-.01.01-.01 0 0 .01 0 .01.01h.02v.01h.01s0 .01.01.01V.4s0 .01-.01.02L5.2.48c-.01.02-.02.05-.03.08-.01.03-.02.05-.03.08-.01.02-.01.04-.02.06 0 .02.01.03.02.04h.02l.03-.03c.01-.01.02-.02.03-.04.01-.02.02-.03.03-.05.02-.04.04-.09.07-.15h.01c0 .01 0 .01 0 0h.01c0 .01 0 .01 0 0h.01c0 .01 0 .02-.01.03 0 .02-.01.04-.02.06a.3.3 0 01-.04.08c-.01.03-.03.06-.04.08-.02.02-.03.04-.05.06-.02.01-.04.02-.05.01zM4.87.61v.01h-.01v0h.01V.61zM4.9.55c-.01 0-.01 0-.01.01v.01h-.01v.02-.01c0-.01.01-.01.01-.01V.56L4.9.55zm.02-.03h-.01v.01s-.01 0-.01.01c.01 0 .01 0 .01-.01V.52h.01zm0-.03c0-.01.01-.02.01-.02 0-.01.01-.02.01-.02.01-.01.01-.02.02-.03 0-.01.01-.02.01-.02l.01-.01V.38c.01 0 .01-.01.01-.01l-.01.01v.01c-.01 0-.01.01-.01.01s0 .01-.01.01v.01c-.01 0-.01.01-.01.01 0 .01-.01.01-.01.02l-.01.01s0 .01-.01.01v.01c0 .01-.01.01-.01.02L4.9.51v.01s0 .01-.01.01c0 .01 0 .01-.01.02v.01c-.01.01-.01.02-.01.02l-.01.01v0h.01V.57l.01-.01V.55h.01V.54.53h.01c0-.01 0-.01.01-.02 0-.01 0-.01.01-.02zm0 .01h.01V.49c0-.01.01-.01.01-.01s0-.01.01-.02c0 0 0-.01.01-.01V.44c0-.01.01-.01.01-.01V.42.41v.02h-.01v.01l-.01.01v.01c-.01 0-.01 0-.01.01v.01s-.01 0-.01.01 0 .01-.01.01v0zm.13.23V.7v.03zm.02.03s0-.01-.01-.01V.74h-.01.01v.01l.01.01zM5.08.6h-.01v.02c-.01 0-.01.01-.01.01v.02c-.01 0-.01 0-.01.01v.03c0 .01 0 .01 0 0V.68.67.66h.01V.65.64.63c.01 0 .01-.01.01-.01V.61s0-.01.01-.01zm.03.03V.62v.02H5.1v.02c-.01 0-.01.01-.01.01s0 .01.01.01v.01c0 .01-.01.01-.01.01h.01V.69.68.67c0-.01 0-.01.01-.02V.64.63zM5.08.59c0 .01 0 0 .01-.01V.57L5.1.56c0-.01 0-.01.01-.01V.54v.01c-.01.01-.02.02-.02.03l-.01.01zm.01.19h.02v.01c0-.01-.01-.01-.01-.01h-.01z"/><path id="6" class="fil1" d="M5.72.48v.01c-.01.01-.01.02-.02.03-.01.01-.02.02-.02.04-.01.01-.02.02-.03.04-.01 0-.01.01-.01.01s0 .01-.01.01c0 0 0 .01-.01.01 0 0 0 .01-.01.02l-.04.04c-.01.01-.02.02-.04.03-.01.01-.03.02-.04.03-.02.01-.04.01-.05.01-.02.01-.03.01-.05.01V.76h-.01c-.02 0-.04-.01-.06-.02L5.29.71C5.28.7 5.27.69 5.27.67V.64.61.59c.01-.04.02-.07.04-.11a.17.17 0 01.06-.06l.04-.04c.02-.01.04-.01.07-.02.02 0 .03.01.04.02l.01.01h.01l.01.01.02.02v.07c-.01.02-.01.03-.02.05-.01.01-.02.03-.03.04-.03.02-.05.04-.08.05-.03.01-.05.02-.06.02v.04c.01.01.02.02.03.02v.01h.03c.01 0 .02-.01.04-.02.01 0 .03-.01.04-.02l.03-.03.03-.03L5.6.6l.02-.02c.01-.01.01-.02.02-.03.01-.02.02-.03.03-.04.01-.01.02-.02.03-.04h.01c0 .01 0 .01 0 0v.01c.01-.01.01-.01.01 0zM5.51.43c-.01 0-.02.01-.02.02-.01 0-.02.02-.03.03-.01.01-.02.03-.03.05-.01.02-.02.03-.03.05v.01L5.39.6v.01c.02-.01.03-.02.05-.03.01-.01.02-.02.04-.03.02-.02.03-.03.03-.04.01-.02.02-.03.02-.04 0-.01.01-.02.01-.02V.44c0-.01 0-.01-.01-.01V.42c-.01 0-.01 0-.02.01zm-.1 0s-.01 0-.01.01c0 0-.01 0-.01.01h-.01c0 .01.01 0 .01 0L5.4.44V.43h.01V.42v.01zm-.1.16v0zm0-.03l.01-.01V.54s0-.01.01-.01V.52c0-.01.01-.01.01-.02 0 0 0-.01.01-.01 0 0 0-.01.01-.01 0-.01.01-.02.01-.02 0-.01.01-.01.01-.02 0 0 .01 0 .01-.01l-.01.01c0 .01-.01.01-.01.01v.01s-.01 0-.01.01l-.01.01c0 .01-.01.01-.01.01V.5s0 .01-.01.01v.01c0 .01 0 .01-.01.01v.01c0 .01-.01.01-.01.02v.02c-.01 0-.01 0-.01.01V.58c.01 0 .01 0 .01-.01V.56zm.02-.01v.01h-.01v0h.01V.55zm.01-.03v.01s-.01 0-.01.01c.01 0 .01-.01.01-.01V.52zm0 0l.01-.01c0-.01.01-.01.01-.01V.49l.01-.01V.47h.01V.46v.01h-.01v.01h-.01V.5h-.01v.02h-.01zm.05.01s0-.01.01-.01V.5c.01 0 .01-.01.02-.02 0 0 0-.01.01-.01V.46h.01V.45h-.01v.01l-.01.01-.01.01-.01.01V.5h-.01v.01l-.01.01v.01l-.01.01v.02l-.01.01v.01c0 .01-.01.01-.01.01v.03-.01s0-.01.01-.01V.59.58l.01-.01V.56l.02-.03z"/><path id="7" class="fil1" d="M6 .48h.01S6 .49 6 .51c-.01.01-.02.03-.03.06-.02.02-.03.05-.05.08-.02.02-.03.05-.05.07-.02.03-.04.04-.06.06-.02.01-.04.02-.05.02-.01 0-.02-.01-.02-.01h-.02-.01c-.01 0-.02-.01-.03-.02-.01 0-.01-.01-.02-.02 0-.01-.01-.02-.01-.04V.66c0-.01 0-.03.01-.04V.58c.02-.04.03-.09.05-.13l.06-.12h-.08C5.65.32 5.62.32 5.6.31 5.58.3 5.56.29 5.55.28 5.54.27 5.53.27 5.53.26S5.52.25 5.52.25V.21s0-.01.01-.01v.01h.01V.2h.02c0 .01.01.01.01.02v.01c.01 0 .01.01.01.01.01 0 .01 0 .02.01.01 0 .03.01.04.01h.06c.02.01.04 0 .06 0h.06c.01-.02.02-.03.03-.04.01-.02.02-.03.03-.04.01-.01.02-.02.02-.03h.03c.01-.01.02-.01.02 0h.01c0-.01.01-.01.01-.01h.01c0-.01.01-.01.01-.01v.01c0 .01 0 .01-.01.03l-.04.08c.04 0 .07-.01.11-.01.03 0 .07 0 .1-.01h.07c.02-.01.03-.01.04-.01h.02c.01 0 .01.01.01.01h-.04.04v.01l-.01.01v.01h-.01v.01h-.01v.01h-.01c-.03.01-.05.01-.08.02-.02 0-.05 0-.08.01-.03 0-.07 0-.1.01h-.06c-.01 0-.02 0-.03.01-.01.03-.03.06-.04.09-.02.03-.04.06-.05.09-.01.03-.02.05-.03.07-.01.03-.02.05-.03.08 0 .02-.01.04-.01.05 0 .02.01.03.02.03 0 .01.01.01.02 0 .01 0 .02-.01.04-.02.01-.02.02-.03.03-.05.01-.01.02-.03.04-.05.02-.04.05-.09.08-.14H6zm.13-.23h.02c0-.01.01-.01.01-.01h.05-.01-.01-.01-.01-.01-.02l-.01.01zm-.07 0H6.12h-.03-.02-.01zm-.22.02H5.94s.01 0 .01-.01H6.02c.01 0 .02 0 .03-.01h-.01s0 .01-.01.01h-.01-.03-.02-.01-.02-.02l-.01.01h-.05-.02zm-.11.01h.05c.01 0 .01-.01.02-.01h.02c.01 0 .01 0 0 0h-.05-.01c0 .01-.01.01-.02.01h-.03.02zm.03.01h.05c.01-.01.02-.01.03-.01H5.95c.01 0 .01 0 .02-.01H6.07s0-.01.01-.01h.08s.01 0 .01-.01h.07c.01 0 .02 0 .03-.01h-.02c-.01 0-.02.01-.03.01h-.03-.01-.01c-.02.01-.03.01-.04.01h-.04-.03c-.01.01-.02.01-.02.01h-.03-.07s0 .01-.01.01h-.01-.05H5.81c-.01 0-.02 0-.02.01h-.01-.02-.02.02zm0 .14v.01c-.01.01-.01.01-.01.02V.45l.01-.01V.43h.01-.01zm-.07.18V.6v.01zM5.7.56V.54c0-.01.01-.01.01-.02 0 0 0-.01.01-.01V.5.49l.01-.01V.47c0-.01.01-.01.01-.01V.45.44h.01V.43v.01c-.01 0-.01.01-.01.01v.01h-.01v.02c-.01 0-.01.01-.01.01V.5l-.01.01v.02H5.7v.02c0 .01-.01.01-.01.01v.03s-.01 0-.01.01v.01c0-.01 0-.01.01-.02V.58.57.56h.01zm.01.01V.56v.01H5.7v.02-.01-.01h.01zm0-.03v.01s0-.01.01-.01h-.01zm.01-.02s.01 0 .01-.01V.5s0-.01.01-.01V.48.47v.02h-.01v.02c-.01 0-.01.01-.01.01v0zm.02.09V.6c0-.01 0-.01.01-.02V.57s0-.01.01-.01V.54.53s.01 0 .01-.01V.51c.01-.01.01-.02.01-.02.01-.01.01-.02.01-.02L5.8.46c-.01 0 0 0 0 0V.45h-.01v.02s-.01 0-.01.01l-.01.01v.02l-.01.01v.01h-.01v.03c0 .01-.01.01-.01.01V.6l-.01.01v.02s0-.01.01-.01V.61z"/><path id="8" class="fil1" d="M6.27.48h.01s0 .01-.01.03c-.01.01-.02.03-.03.06-.01.02-.03.05-.04.08-.02.02-.04.05-.06.07-.02.03-.03.04-.05.06-.02.01-.04.02-.06.02-.01 0-.01-.01-.02-.01h-.03c-.01 0-.02-.01-.02-.02-.01 0-.02-.01-.02-.02-.01-.01-.01-.02-.01-.04s-.01-.03 0-.05V.62c0-.01.01-.03.01-.04.01-.04.03-.09.05-.13l.06-.12h-.09C5.93.32 5.9.32 5.87.31 5.85.3 5.84.29 5.82.28L5.8.26V.25.21.2c.01 0 .01 0 .01.01V.2h.02c.01.01.01.01.01.02s.01.01.01.01 0 .01.01.01c0 0 .01 0 .01.01.01 0 .03.01.05.01h.05c.02.01.05 0 .07 0h.05l.04-.04c.01-.02.02-.03.02-.04l.03-.03h.02c.02-.01.03-.01.03 0h.01c0-.01 0-.01.01-.01h.01V.13c.01 0 .01.01.01.01 0 .01-.01.01-.01.03l-.05.08c.04 0 .08-.01.11-.01.04 0 .07 0 .1-.01h.07c.02-.01.04-.01.04-.01h.03v.01h-.02-.02.04c.01 0 .01 0 0 .01v.01c-.01 0-.01 0-.01.01v.01h-.01l-.01.01h-.01c-.02.01-.05.01-.08.02-.02 0-.05 0-.08.01-.03 0-.06 0-.1.01h-.05c-.01 0-.02 0-.04.01-.01.03-.02.06-.04.09s-.03.06-.05.09c-.01.03-.02.05-.03.07-.01.03-.02.05-.02.08-.01.02-.01.04-.01.05 0 .02 0 .03.01.03.01.01.02.01.03 0 .01 0 .02-.01.03-.02.01-.02.02-.03.03-.05.02-.01.03-.03.04-.05.03-.04.06-.09.09-.14h.02zm.14-.23H6.4h.02c.01-.01.01-.01.02-.01h.04-.04-.01-.01-.01v.01zm-.07 0h-.01.01zm-.22.02h.09c.01 0 .01 0 .02-.01h.07s.01 0 .02-.01c-.01 0-.01.01-.02.01h-.01-.04-.05c-.01 0-.01.01-.02.01h-.05-.01-.01.01zm-.11.01h.04c.01 0 .02-.01.02-.01h.03-.01-.05-.01c0 .01 0 .01-.01.01h-.04.03zm.03.01h.05c0-.01.01-.01.02-.01h.12s.01 0 .01-.01H6.34l.01-.01h.08c.01 0 .01 0 .02-.01h.06c.01 0 .02 0 .03-.01h.01-.01-.01c-.01 0-.02.01-.03.01h-.02-.04c-.01.01-.02.01-.03.01h-.08c0 .01-.01.01-.02.01h-.05-.02-.02l-.01.01h-.03-.02-.08c-.01 0-.01 0-.02.01h-.03-.01.02zm0 .14c0 .01-.01.01-.01.01 0 .01 0 .01-.01.02v0l.01-.01V.44c.01 0 .01-.01.01-.01zm-.07.18V.6v.02h-.01.01V.61zm0-.05V.55l.01-.01V.52c.01 0 .01-.01.01-.01V.5L6 .49V.48s0-.01.01-.01V.46l.01-.01V.43v.02c-.01 0-.01.01-.01.01 0 .01-.01.01-.01.01v.01s0 .01-.01.01v.02l-.01.01v.01c0 .01 0 .01-.01.01v.03c-.01 0-.01 0-.01.01V.58l.01-.01V.56zm.01.01V.56v.02h-.01v.01-.01h.01V.57zm.01-.03v.01h-.01v.01l.01-.01V.54zM6 .52V.51.5h.01V.49.48h.01V.47h-.01V.5H6v.02h-.01v.01H6c-.01 0 0 0 0-.01zm.01.09V.6h.01V.58.57c.01 0 .01-.01.01-.01 0-.01 0-.01.01-.02V.53.52l.01-.01c0-.01.01-.02.01-.02 0-.01 0-.02.01-.02V.46.45h0v.01h-.01v.02h-.01v.01c-.01.01-.01.01-.01.02v.01c-.01 0-.01 0-.01.01s0 .01-.01.02v.03l-.01.01v.03H6v.01h.01V.62.61z"/><path id="9" class="fil1" d="M6.42.43c0 .01 0 .01-.01.01 0 0 0 .01-.01.02s-.02.03-.04.05c-.01.02-.02.04-.03.07-.01.02-.01.05-.02.08v.05c0 .02.01.03.01.04h.02c.02-.01.03-.02.05-.03.01-.02.03-.04.05-.06-.01-.01-.02-.02-.02-.03C6.41.61 6.4.59 6.41.57c0-.02 0-.04.02-.05.01-.02.02-.03.03-.03.02-.01.03-.01.04-.01.01 0 .02.01.02.02.01 0 .01.01.01.02v.04s0 .01-.01.01v.01-.01c0 .01 0 .02-.01.03v.02c.01 0 .03-.02.06-.04s.06-.05.1-.1V.47h.01v.01h.01V.47l.01.01c-.01.02-.03.05-.04.07-.02.03-.04.04-.06.06-.02.02-.04.03-.06.04-.02.01-.04.01-.06.02a.21.21 0 01-.04.06c-.02.01-.04.03-.06.04-.04.01-.07.02-.09.01-.02-.01-.04-.02-.05-.03a.09.09 0 01-.03-.07C6.2.65 6.2.62 6.2.6l.03-.09a.21.21 0 01.04-.06c.01-.02.03-.04.04-.05.02-.01.04-.02.05-.03.02-.01.03-.01.04 0h.03c.02.01.03.02.05.03v.03l-.01.01h-.02C6.44.43 6.43.43 6.42.43zm.03.15V.6c.01.01.01.02.01.02.01-.01.01-.01.01-.02.01-.01.01-.02.01-.03 0 0 .01 0 .01-.01V.54C6.5.53 6.5.53 6.5.52L6.49.51c-.01 0-.02 0-.02.01-.01.02-.01.03-.02.06zM6.31.45c0 .01 0 .01-.01.01v.01c-.01 0-.01.01-.01.01L6.3.47s0-.01.01-.01V.45zm-.07.14V.6.59zm0-.03V.55s0-.01.01-.01c0-.01 0-.01.01-.02 0-.01 0-.02.01-.02 0-.01.01-.02.01-.02 0-.01 0-.01.01-.01V.46s.01 0 .01-.01l-.01.01c0 .01-.01.01-.01.01v.01c-.01 0-.01 0-.01.01L6.26.5v.01l-.01.01v.01c0 .01-.01.01-.01.01v.02c-.01 0-.01.01-.01.01v0h.01V.56zm.01-.01v.02h-.01.01V.56.55zm.01-.02v.01s-.01 0-.01.01l.01-.01V.53zm.01-.01V.51h.01V.5.49h.01V.48v.01h-.01V.5c-.01 0-.01.01-.01.01v.01h-.01v.01c.01 0 .01-.01.01-.01zm.07-.04c.01 0 .01 0 0 0V.47v.01s-.01 0-.01.01L6.32.5s0 .01-.01.01v.01L6.3.53v.01s-.01 0-.01.01v.02l-.01.01V.59h.01V.58.57.56h.01V.54s.01 0 .01-.01c0 0 0-.01.01-.01 0 0 0-.01.01-.01V.49h.01V.48z"/></g></g></svg>