<svg xmlns="http://www.w3.org/2000/svg" width="512" height="512"><defs/><path xmlns="http://www.w3.org/2000/svg" d="M480.684 472.383H31.316c-13.152 0-23.816-10.664-23.816-23.817V31.316C7.5 18.16 18.164 7.5 31.316 7.5h449.368c13.156 0 23.816 10.66 23.816 23.816v417.25c0 13.153-10.664 23.817-23.816 23.817zm0 0" fill="#fff" data-original="#f4f4f4"/><path xmlns="http://www.w3.org/2000/svg" d="M480.684 7.5h-35c13.152 0 23.816 10.66 23.816 23.816v417.25c0 13.153-10.664 23.817-23.816 23.817h35c13.152 0 23.816-10.664 23.816-23.817V31.316C504.5 18.16 493.836 7.5 480.684 7.5zm0 0" fill="#e8e8e8" data-original="#e8e8e8"/><path xmlns="http://www.w3.org/2000/svg" d="M7.5 96.965h497V31.316C504.5 18.16 493.836 7.5 480.684 7.5H31.316C18.164 7.5 7.5 18.16 7.5 31.316zm0 0" fill="#7f1d1d" data-original="#fa5d72"/><path xmlns="http://www.w3.org/2000/svg" d="M480.684 7.5h-35c13.152 0 23.816 10.66 23.816 23.816v65.649h35V31.316C504.5 18.16 493.836 7.5 480.684 7.5zm0 0" fill="#4f0e0e" data-original="#e35567"/><path xmlns="http://www.w3.org/2000/svg" d="M84.809 52.23c0 9.75-7.903 17.657-17.653 17.657S49.5 61.98 49.5 52.23s7.906-17.652 17.656-17.652S84.81 42.48 84.81 52.23zm0 0" fill="#00ff8d" data-original="#2cab72"/><path xmlns="http://www.w3.org/2000/svg" d="M144.57 52.23c0 9.75-7.906 17.657-17.656 17.657s-17.652-7.907-17.652-17.657 7.902-17.652 17.652-17.652S144.57 42.48 144.57 52.23zm0 0" fill="#f6d867" data-original="#f6d867"/><path xmlns="http://www.w3.org/2000/svg" d="M204.328 52.23c0 9.75-7.902 17.657-17.652 17.657S169.02 61.98 169.02 52.23s7.906-17.652 17.656-17.652 17.652 7.902 17.652 17.652zm0 0" fill="#5994ce" data-original="#5994ce"/><path xmlns="http://www.w3.org/2000/svg" d="M358.957 422.047H153.043c-22.39 0-40.543-18.152-40.543-40.543V226.398c0-22.39 18.152-40.543 40.543-40.543h205.914c22.39 0 40.543 18.153 40.543 40.543v155.106c0 22.39-18.152 40.543-40.543 40.543zm0 0" fill="#9c9a9b" data-original="#9c9a9b"/><path xmlns="http://www.w3.org/2000/svg" d="M358.957 185.855h-38.5c22.39 0 40.543 18.153 40.543 40.543v155.106c0 22.39-18.152 40.543-40.543 40.543h38.5c22.39 0 40.543-18.152 40.543-40.543V226.398c0-22.39-18.152-40.543-40.543-40.543zm0 0" fill="#858384" data-original="#858384"/><path xmlns="http://www.w3.org/2000/svg" d="M331 185.855H181V163.48c0-9.644 7.816-17.464 17.46-17.464h115.075c9.645 0 17.465 7.82 17.465 17.464zm0 0" fill="#495663" data-original="#495663"/><path xmlns="http://www.w3.org/2000/svg" d="M313.54 146.016H282.87c9.645 0 17.461 7.82 17.461 17.46v22.38H331v-22.38c0-9.64-7.816-17.46-17.46-17.46zm0 0" fill="#3a444f" data-original="#3a444f"/><path xmlns="http://www.w3.org/2000/svg" d="M92.309 52.23c0-13.87-11.282-25.152-25.153-25.152S42 38.36 42 52.23c0 13.872 11.285 25.157 25.152 25.157 13.871 0 25.157-11.285 25.157-25.157zM67.156 62.387C61.555 62.387 57 57.828 57 52.23c0-5.597 4.555-10.152 10.152-10.152 5.602 0 10.157 4.555 10.157 10.152 0 5.598-4.555 10.157-10.153 10.157zm0 0M126.914 77.387c13.871 0 25.156-11.285 25.156-25.157 0-13.87-11.285-25.152-25.156-25.152-13.867 0-25.152 11.281-25.152 25.152 0 13.872 11.281 25.157 25.152 25.157zm0-35.309c5.602 0 10.156 4.555 10.156 10.152 0 5.598-4.554 10.157-10.156 10.157-5.598 0-10.152-4.559-10.152-10.157 0-5.597 4.554-10.152 10.152-10.152zm0 0M186.676 77.387c13.867 0 25.152-11.285 25.152-25.157 0-13.87-11.285-25.152-25.152-25.152-13.871 0-25.156 11.281-25.156 25.152 0 13.872 11.285 25.157 25.156 25.157zm0-35.309c5.597 0 10.152 4.555 10.152 10.152 0 5.598-4.555 10.157-10.152 10.157-5.602 0-10.156-4.559-10.156-10.157 0-5.597 4.554-10.152 10.156-10.152zm0 0M269.668 59.73h182.668a7.5 7.5 0 100-15H269.668a7.5 7.5 0 00-7.5 7.5c0 4.145 3.355 7.5 7.5 7.5zm0 0" data-original="#000000"/><path xmlns="http://www.w3.org/2000/svg" d="M511.578 26.164c-.043-.258-.09-.512-.14-.77-.024-.124-.047-.253-.075-.382C508.437 10.758 495.793 0 480.683 0H31.317C14.051 0 0 14.047 0 31.316v417.25c0 17.27 14.05 31.317 31.316 31.317h449.368c17.265 0 31.316-14.051 31.316-31.317V31.316c0-1.753-.145-3.472-.422-5.152zm-30.894 438.719H31.316c-8.996 0-16.316-7.32-16.316-16.317V104.465h41.809a7.5 7.5 0 007.5-7.5c0-4.145-3.356-7.5-7.5-7.5H15V31.316C15 22.32 22.32 15 31.316 15h449.368c7.308 0 13.511 4.832 15.582 11.469l.058.191c.059.195.11.387.16.582a15.99 15.99 0 01.43 2.41c.059.547.086 1.102.086 1.664v58.149H84.809a7.5 7.5 0 100 15H497v344.101c0 8.997-7.32 16.317-16.316 16.317zm0 0" data-original="#000000"/><path xmlns="http://www.w3.org/2000/svg" d="M166.363 298.246a7.5 7.5 0 0010.606 0l14.695-14.7 14.7 14.7a7.5 7.5 0 0010.605-10.61l-14.696-14.695 14.696-14.695a7.502 7.502 0 000-10.61c-2.93-2.925-7.68-2.925-10.606 0l-14.699 14.7-14.695-14.7c-2.93-2.925-7.68-2.925-10.606 0a7.502 7.502 0 000 10.61l14.696 14.695-14.696 14.696a7.502 7.502 0 000 10.61zm0 0M295.031 298.246a7.5 7.5 0 0010.606 0l14.695-14.7 14.7 14.7a7.5 7.5 0 0010.605-10.61l-14.696-14.695 14.696-14.695a7.502 7.502 0 000-10.61c-2.93-2.925-7.68-2.925-10.606 0l-14.699 14.7-14.695-14.7c-2.93-2.925-7.68-2.925-10.606 0a7.502 7.502 0 000 10.61l14.696 14.695-14.696 14.696a7.502 7.502 0 000 10.61zm0 0M187.504 359.773h136.992a7.5 7.5 0 100-15H187.504a7.5 7.5 0 100 15zm0 0" data-original="#000000"/><path xmlns="http://www.w3.org/2000/svg" d="M358.957 178.355H338.5V163.48c0-13.765-11.2-24.964-24.96-24.964H198.46c-13.76 0-24.96 11.199-24.96 24.964v14.875h-20.457c-26.492 0-48.043 21.555-48.043 48.043v155.106c0 26.488 21.55 48.043 48.043 48.043h133.293a7.5 7.5 0 100-15H153.043c-18.219 0-33.043-14.824-33.043-33.043V226.398c0-18.218 14.824-33.043 33.043-33.043h205.914c18.219 0 33.043 14.825 33.043 33.043v155.106c0 18.219-14.824 33.043-33.043 33.043h-44.625a7.5 7.5 0 100 15h44.625c26.492 0 48.043-21.555 48.043-48.043V226.398c0-26.488-21.55-48.043-48.043-48.043zm-170.457 0V163.48c0-5.496 4.469-9.964 9.96-9.964h115.075c5.496 0 9.965 4.468 9.965 9.964v14.875zm0 0" data-original="#000000"/></svg>